# 
# Wavefront OBJ file
# Converted by the DEEP Exploration Deep Exploration 5 5.0.2.1477 Release
# Right Hemisphere, LTD
# http://www.righthemisphere.com/
# 
mtllib workingTable2.mtl
# object c1_tav
g c1_tav
v -349.99979 -3.54395 -450.00016
v -263.28799 -3.54393 -450.00010
v -349.99979 -3.54397 -397.41715
v -263.28802 -3.54395 -397.41712
v 350.00021 -3.54379 -449.99994
v 350.00021 -3.54381 -397.41697
v 263.28842 -3.54381 -449.99994
v 263.28842 -3.54383 -397.41700
v 349.99997 -3.54398 450.00000
v 263.28818 -3.54400 449.99997
v 350.00000 -3.54396 397.41703
v 263.28821 -3.54398 397.41703
v -350.00003 -3.54413 449.99982
v -350.00000 -3.54412 397.41685
v -263.28824 -3.54411 449.99982
v -263.28821 -3.54410 397.41688
v -263.28799 -3.54393 -450.00010
v -349.99979 -3.54395 -450.00016
v -263.28815 698.45610 -449.99996
v -349.99997 860.45609 -449.99995
v 263.28827 698.45622 -449.99978
v 350.00003 860.45627 -449.99977
v 263.28842 -3.54381 -449.99994
v 350.00021 -3.54379 -449.99994
v -350.00000 -3.54412 397.41685
v -350.00003 -3.54413 449.99982
v -350.00015 698.45587 397.41701
v -350.00021 860.45592 449.99999
v -349.99997 698.45610 -397.41702
v -349.99997 860.45609 -449.99995
v -349.99979 -3.54397 -397.41715
v -349.99979 -3.54395 -450.00016
v 263.28818 -3.54400 449.99997
v 349.99997 -3.54398 450.00000
v 263.28802 698.45593 450.00011
v 349.99979 860.45610 450.00021
v -263.28839 698.45580 449.99998
v -350.00021 860.45592 449.99999
v -263.28824 -3.54411 449.99982
v -350.00003 -3.54413 449.99982
v 350.00021 -3.54381 -397.41697
v 350.00021 -3.54379 -449.99994
v 350.00003 698.45622 -397.41684
v 350.00003 860.45627 -449.99977
v 349.99985 698.45605 397.41716
v 349.99979 860.45610 450.00021
v 350.00000 -3.54396 397.41703
v 349.99997 -3.54398 450.00000
v -350.00021 860.45592 449.99999
v 349.99979 860.45610 450.00021
v -349.99997 860.45609 -449.99995
v 350.00003 860.45627 -449.99977
v -263.28815 698.45610 -449.99996
v 263.28827 698.45622 -449.99978
v -263.28818 698.45610 -397.41699
v 263.28824 698.45616 -397.41687
v 350.00003 698.45622 -397.41684
v 349.99985 698.45605 397.41716
v 263.28802 698.45599 397.41713
v 263.28802 698.45593 450.00011
v -263.28839 698.45580 449.99998
v -263.28836 698.45587 397.41701
v -350.00015 698.45587 397.41701
v -349.99997 698.45610 -397.41702
v -349.99979 -3.54397 -397.41715
v -263.28802 -3.54395 -397.41712
v -349.99997 698.45610 -397.41702
v -263.28818 698.45610 -397.41699
v -263.28802 -3.54395 -397.41712
v -263.28799 -3.54393 -450.00010
v -263.28818 698.45610 -397.41699
v -263.28815 698.45610 -449.99996
v 263.28842 -3.54381 -449.99994
v 263.28842 -3.54383 -397.41700
v 263.28827 698.45622 -449.99978
v 263.28824 698.45616 -397.41687
v 263.28842 -3.54383 -397.41700
v 350.00021 -3.54381 -397.41697
v 263.28824 698.45616 -397.41687
v 350.00003 698.45622 -397.41684
v 350.00000 -3.54396 397.41703
v 263.28821 -3.54398 397.41703
v 349.99985 698.45605 397.41716
v 263.28802 698.45599 397.41713
v 263.28821 -3.54398 397.41703
v 263.28818 -3.54400 449.99997
v 263.28802 698.45599 397.41713
v 263.28802 698.45593 450.00011
v -263.28824 -3.54411 449.99982
v -263.28821 -3.54410 397.41688
v -263.28839 698.45580 449.99998
v -263.28836 698.45587 397.41701
v -263.28821 -3.54410 397.41688
v -350.00000 -3.54412 397.41685
v -263.28836 698.45587 397.41701
v -350.00015 698.45587 397.41701
# 96 verticies
vt 0.11400 0.33171
vt 0.13791 0.33171
vt 0.11400 0.36393
vt 0.13791 0.36393
vt 0.10017 0.33171
vt 0.10017 0.36393
vt 0.07626 0.33171
vt 0.07626 0.36393
vt 0.22441 0.40998
vt 0.20050 0.40998
vt 0.22441 0.37776
vt 0.20050 0.37776
vt 0.20050 0.36393
vt 0.20050 0.33171
vt 0.22441 0.36393
vt 0.22441 0.33171
vt 0.24058 0.45117
vt 0.24058 0.47508
vt 0.06136 0.45117
vt 0.02000 0.47508
vt 0.06136 0.30598
vt 0.02000 0.28207
vt 0.24058 0.30598
vt 0.24058 0.28207
vt 0.80131 0.25450
vt 0.83353 0.25450
vt 0.80131 0.43372
vt 0.83353 0.47508
vt 0.31429 0.43372
vt 0.28207 0.47508
vt 0.31429 0.25450
vt 0.28207 0.25450
vt 0.02000 0.56805
vt 0.02000 0.54415
vt 0.19922 0.56805
vt 0.24058 0.54415
vt 0.19922 0.71325
vt 0.24058 0.73716
vt 0.02000 0.71325
vt 0.02000 0.73716
vt 0.31429 0.73716
vt 0.28207 0.73716
vt 0.31429 0.55793
vt 0.28207 0.51657
vt 0.80131 0.55793
vt 0.83353 0.51657
vt 0.80131 0.73716
vt 0.83353 0.73716
vt 0.02000 0.98000
vt 0.02000 0.78699
vt 0.57146 0.98000
vt 0.57146 0.78699
vt 0.28207 0.18910
vt 0.28207 0.04391
vt 0.31429 0.18910
vt 0.31429 0.04391
vt 0.31429 0.02000
vt 0.80131 0.02000
vt 0.80131 0.04391
vt 0.83353 0.04391
vt 0.83353 0.18910
vt 0.80131 0.18910
vt 0.80131 0.21301
vt 0.31429 0.21301
vt 0.41774 0.67222
vt 0.41774 0.64831
vt 0.59696 0.67222
vt 0.59696 0.64831
vt 0.42339 0.34532
vt 0.42339 0.31310
vt 0.60262 0.34532
vt 0.60262 0.31310
vt 0.70523 0.25450
vt 0.70523 0.28672
vt 0.52600 0.25450
vt 0.52600 0.28672
vt 0.41774 0.72098
vt 0.41774 0.69707
vt 0.59696 0.72098
vt 0.59696 0.69707
vt 0.59696 0.57283
vt 0.59696 0.59674
vt 0.41774 0.57283
vt 0.41774 0.59674
vt 0.60262 0.35915
vt 0.60262 0.39137
vt 0.42339 0.35915
vt 0.42339 0.39137
vt 0.33295 0.28672
vt 0.33295 0.25450
vt 0.51217 0.28672
vt 0.51217 0.25450
vt 0.59696 0.61057
vt 0.59696 0.63448
vt 0.41774 0.61057
vt 0.41774 0.63448
# 96 texture verticies
vn 0.00000 -1.00000 -0.00000
vn 0.00000 0.00000 -1.00000
vn 0.00000 0.00000 -1.00000
vn 0.00000 0.00000 -1.00000
vn 0.00000 0.00000 -1.00000
vn -1.00000 0.00000 0.00000
vn 0.00000 -0.00000 1.00000
vn 1.00000 0.00000 0.00000
vn 0.00000 1.00000 0.00000
# 9 normals
usemtl Standardmateria
f  1/1/1 2/2/1 3/3/1
f  2/2/1 4/4/1 3/3/1
f  5/5/1 6/6/1 7/7/1
f  6/6/1 8/8/1 7/7/1
f  9/9/1 10/10/1 11/11/1
f  10/10/1 12/12/1 11/11/1
f  13/13/1 14/14/1 15/15/1
f  14/14/1 16/16/1 15/15/1
f  17/17/2 18/18/2 19/19/2
f  18/18/2 20/20/3 19/19/2
f  19/19/2 20/20/3 21/21/4
f  20/20/3 22/22/4 21/21/4
f  21/21/4 22/22/4 23/23/5
f  22/22/4 24/24/2 23/23/5
f  25/25/6 26/26/6 27/27/6
f  26/26/6 28/28/6 27/27/6
f  27/27/6 28/28/6 29/29/6
f  28/28/6 30/30/6 29/29/6
f  29/29/6 30/30/6 31/31/6
f  30/30/6 32/32/6 31/31/6
f  33/33/7 34/34/7 35/35/7
f  34/34/7 36/36/7 35/35/7
f  35/35/7 36/36/7 37/37/7
f  36/36/7 38/38/7 37/37/7
f  37/37/7 38/38/7 39/39/7
f  38/38/7 40/40/7 39/39/7
f  41/41/8 42/42/8 43/43/8
f  42/42/8 44/44/8 43/43/8
f  43/43/8 44/44/8 45/45/8
f  44/44/8 46/46/8 45/45/8
f  45/45/8 46/46/8 47/47/8
f  46/46/8 48/48/8 47/47/8
f  49/49/9 50/50/9 51/51/9
f  50/50/9 52/52/9 51/51/9
f  53/53/1 54/54/1 55/55/1
f  54/54/1 56/56/1 55/55/1
f  57/57/1 58/58/1 56/56/1
f  58/58/1 59/59/1 56/56/1
f  60/60/1 61/61/1 59/59/1
f  61/61/1 62/62/1 59/59/1
f  59/59/1 62/62/1 56/56/1
f  62/62/1 63/63/1 56/56/1
f  56/56/1 63/63/1 55/55/1
f  63/63/1 64/64/1 55/55/1
f  65/65/7 66/66/7 67/67/7
f  66/66/7 68/68/7 67/67/7
f  69/69/8 70/70/8 71/71/8
f  70/70/8 72/72/8 71/71/8
f  73/73/6 74/74/6 75/75/6
f  74/74/6 76/76/6 75/75/6
f  77/77/7 78/78/7 79/79/7
f  78/78/7 80/80/7 79/79/7
f  81/81/2 82/82/2 83/83/2
f  82/82/2 84/84/3 83/83/2
f  85/85/6 86/86/6 87/87/6
f  86/86/6 88/88/6 87/87/6
f  89/89/8 90/90/8 91/91/8
f  90/90/8 92/92/8 91/91/8
f  93/93/2 94/94/2 95/95/2
f  94/94/2 96/96/2 95/95/2
