# 
# Wavefront OBJ file
# Converted by the DEEP Exploration Deep Exploration 5 5.0.2.1477 Release
# Right Hemisphere, LTD
# http://www.righthemisphere.com/
# 
mtllib workingTable.mtl
# object c1_tav
g c1_tav
v -349.99963 0.00014 -1000.00006
v -263.28784 0.00016 -1000.00006
v -349.99966 0.00012 -883.14906
v -263.28787 0.00014 -883.14906
v 350.00034 0.00030 -999.99994
v 350.00031 0.00028 -883.14887
v 263.28854 0.00028 -999.99994
v 263.28851 0.00026 -883.14893
v 349.99982 -0.00010 999.99994
v 263.28802 -0.00012 999.99994
v 349.99985 -0.00007 883.14900
v 263.28806 -0.00009 883.14893
v -350.00015 -0.00025 999.99982
v -350.00012 -0.00023 883.14881
v -263.28836 -0.00024 999.99982
v -263.28833 -0.00021 883.14881
v -263.28784 0.00016 -1000.00006
v -349.99963 0.00014 -1000.00006
v -263.28799 650.00008 -999.99990
v -349.99982 800.00007 -999.99989
v 263.28839 650.00020 -999.99978
v 350.00015 800.00026 -999.99977
v 263.28854 0.00028 -999.99994
v 350.00034 0.00030 -999.99994
v -350.00012 -0.00023 883.14881
v -350.00015 -0.00025 999.99982
v -350.00027 649.99973 883.14891
v -350.00034 799.99971 999.99999
v -349.99982 650.00007 -883.14896
v -349.99982 800.00007 -999.99989
v -349.99966 0.00012 -883.14906
v -349.99963 0.00014 -1000.00006
v 263.28802 -0.00012 999.99994
v 349.99982 -0.00010 999.99994
v 263.28787 649.99978 1000.00010
v 349.99963 799.99983 1000.00011
v -263.28851 649.99966 999.99998
v -350.00034 799.99971 999.99999
v -263.28836 -0.00024 999.99982
v -350.00015 -0.00025 999.99982
v 350.00031 0.00028 -883.14887
v 350.00034 0.00030 -999.99994
v 350.00015 650.00020 -883.14877
v 350.00015 800.00026 -999.99977
v 349.99969 649.99985 883.14909
v 349.99963 799.99983 1000.00011
v 349.99985 -0.00007 883.14900
v 349.99982 -0.00010 999.99994
v -350.00034 799.99971 999.99999
v 349.99963 799.99983 1000.00011
v -349.99982 800.00007 -999.99989
v 350.00015 800.00026 -999.99977
v -263.28799 650.00008 -999.99990
v 263.28839 650.00020 -999.99978
v -263.28802 650.00007 -883.14896
v 263.28836 650.00014 -883.14877
v 350.00015 650.00020 -883.14877
v 349.99969 649.99985 883.14909
v 263.28790 649.99979 883.14909
v 263.28787 649.99978 1000.00010
v -263.28851 649.99966 999.99998
v -263.28848 649.99973 883.14891
v -350.00027 649.99973 883.14891
v -349.99982 650.00007 -883.14896
v -349.99966 0.00012 -883.14906
v -263.28787 0.00014 -883.14906
v -349.99982 650.00007 -883.14896
v -263.28802 650.00007 -883.14896
v -263.28787 0.00014 -883.14906
v -263.28784 0.00016 -1000.00006
v -263.28802 650.00007 -883.14896
v -263.28799 650.00008 -999.99990
v 263.28854 0.00028 -999.99994
v 263.28851 0.00026 -883.14893
v 263.28839 650.00020 -999.99978
v 263.28836 650.00014 -883.14877
v 263.28851 0.00026 -883.14893
v 350.00031 0.00028 -883.14887
v 263.28836 650.00014 -883.14877
v 350.00015 650.00020 -883.14877
v 349.99985 -0.00007 883.14900
v 263.28806 -0.00009 883.14893
v 349.99969 649.99985 883.14909
v 263.28790 649.99979 883.14909
v 263.28806 -0.00009 883.14893
v 263.28802 -0.00012 999.99994
v 263.28790 649.99979 883.14909
v 263.28787 649.99978 1000.00010
v -263.28836 -0.00024 999.99982
v -263.28833 -0.00021 883.14881
v -263.28851 649.99966 999.99998
v -263.28848 649.99973 883.14891
v -263.28833 -0.00021 883.14881
v -350.00012 -0.00023 883.14881
v -263.28848 649.99973 883.14891
v -350.00027 649.99973 883.14891
# 96 verticies
vt 0.11400 0.33171
vt 0.13791 0.33171
vt 0.11400 0.36393
vt 0.13791 0.36393
vt 0.10017 0.33171
vt 0.10017 0.36393
vt 0.07626 0.33171
vt 0.07626 0.36393
vt 0.22441 0.40998
vt 0.20050 0.40998
vt 0.22441 0.37776
vt 0.20050 0.37776
vt 0.20050 0.36393
vt 0.20050 0.33171
vt 0.22441 0.36393
vt 0.22441 0.33171
vt 0.24058 0.45117
vt 0.24058 0.47508
vt 0.06136 0.45117
vt 0.02000 0.47508
vt 0.06136 0.30598
vt 0.02000 0.28207
vt 0.24058 0.30598
vt 0.24058 0.28207
vt 0.80131 0.25450
vt 0.83353 0.25450
vt 0.80131 0.43372
vt 0.83353 0.47508
vt 0.31429 0.43372
vt 0.28207 0.47508
vt 0.31429 0.25450
vt 0.28207 0.25450
vt 0.02000 0.56805
vt 0.02000 0.54415
vt 0.19922 0.56805
vt 0.24058 0.54415
vt 0.19922 0.71325
vt 0.24058 0.73716
vt 0.02000 0.71325
vt 0.02000 0.73716
vt 0.31429 0.73716
vt 0.28207 0.73716
vt 0.31429 0.55793
vt 0.28207 0.51657
vt 0.80131 0.55793
vt 0.83353 0.51657
vt 0.80131 0.73716
vt 0.83353 0.73716
vt 0.02000 0.98000
vt 0.02000 0.78699
vt 0.57146 0.98000
vt 0.57146 0.78699
vt 0.28207 0.18910
vt 0.28207 0.04391
vt 0.31429 0.18910
vt 0.31429 0.04391
vt 0.31429 0.02000
vt 0.80131 0.02000
vt 0.80131 0.04391
vt 0.83353 0.04391
vt 0.83353 0.18910
vt 0.80131 0.18910
vt 0.80131 0.21301
vt 0.31429 0.21301
vt 0.41774 0.67222
vt 0.41774 0.64831
vt 0.59696 0.67222
vt 0.59696 0.64831
vt 0.42339 0.34532
vt 0.42339 0.31310
vt 0.60262 0.34532
vt 0.60262 0.31310
vt 0.70523 0.25450
vt 0.70523 0.28672
vt 0.52600 0.25450
vt 0.52600 0.28672
vt 0.41774 0.72098
vt 0.41774 0.69707
vt 0.59696 0.72098
vt 0.59696 0.69707
vt 0.59696 0.57283
vt 0.59696 0.59674
vt 0.41774 0.57283
vt 0.41774 0.59674
vt 0.60262 0.35915
vt 0.60262 0.39137
vt 0.42339 0.35915
vt 0.42339 0.39137
vt 0.33295 0.28672
vt 0.33295 0.25450
vt 0.51217 0.28672
vt 0.51217 0.25450
vt 0.59696 0.61057
vt 0.59696 0.63448
vt 0.41774 0.61057
vt 0.41774 0.63448
# 96 texture verticies
vn 0.00000 -1.00000 -0.00000
vn 0.00000 0.00000 -1.00000
vn -1.00000 0.00000 0.00000
vn 0.00000 -0.00000 1.00000
vn 1.00000 0.00000 0.00000
vn 0.00000 1.00000 0.00000
# 6 normals
usemtl Standardmateria
f  1/1/1 2/2/1 3/3/1
f  2/2/1 4/4/1 3/3/1
f  5/5/1 6/6/1 7/7/1
f  6/6/1 8/8/1 7/7/1
f  9/9/1 10/10/1 11/11/1
f  10/10/1 12/12/1 11/11/1
f  13/13/1 14/14/1 15/15/1
f  14/14/1 16/16/1 15/15/1
f  17/17/2 18/18/2 19/19/2
f  18/18/2 20/20/2 19/19/2
f  19/19/2 20/20/2 21/21/2
f  20/20/2 22/22/2 21/21/2
f  21/21/2 22/22/2 23/23/2
f  22/22/2 24/24/2 23/23/2
f  25/25/3 26/26/3 27/27/3
f  26/26/3 28/28/3 27/27/3
f  27/27/3 28/28/3 29/29/3
f  28/28/3 30/30/3 29/29/3
f  29/29/3 30/30/3 31/31/3
f  30/30/3 32/32/3 31/31/3
f  33/33/4 34/34/4 35/35/4
f  34/34/4 36/36/4 35/35/4
f  35/35/4 36/36/4 37/37/4
f  36/36/4 38/38/4 37/37/4
f  37/37/4 38/38/4 39/39/4
f  38/38/4 40/40/4 39/39/4
f  41/41/5 42/42/5 43/43/5
f  42/42/5 44/44/5 43/43/5
f  43/43/5 44/44/5 45/45/5
f  44/44/5 46/46/5 45/45/5
f  45/45/5 46/46/5 47/47/5
f  46/46/5 48/48/5 47/47/5
f  49/49/6 50/50/6 51/51/6
f  50/50/6 52/52/6 51/51/6
f  53/53/1 54/54/1 55/55/1
f  54/54/1 56/56/1 55/55/1
f  57/57/1 58/58/1 56/56/1
f  58/58/1 59/59/1 56/56/1
f  60/60/1 61/61/1 59/59/1
f  61/61/1 62/62/1 59/59/1
f  59/59/1 62/62/1 56/56/1
f  62/62/1 63/63/1 56/56/1
f  56/56/1 63/63/1 55/55/1
f  63/63/1 64/64/1 55/55/1
f  65/65/4 66/66/4 67/67/4
f  66/66/4 68/68/4 67/67/4
f  69/69/5 70/70/5 71/71/5
f  70/70/5 72/72/5 71/71/5
f  73/73/3 74/74/3 75/75/3
f  74/74/3 76/76/3 75/75/3
f  77/77/4 78/78/4 79/79/4
f  78/78/4 80/80/4 79/79/4
f  81/81/2 82/82/2 83/83/2
f  82/82/2 84/84/2 83/83/2
f  85/85/3 86/86/3 87/87/3
f  86/86/3 88/88/3 87/87/3
f  89/89/5 90/90/5 91/91/5
f  90/90/5 92/92/5 91/91/5
f  93/93/2 94/94/2 95/95/2
f  94/94/2 96/96/2 95/95/2
