# 
# Wavefront OBJ file
# Converted by the DEEP Exploration Deep Exploration 5 5.0.2.1477 Release
# Right Hemisphere, LTD
# http://www.righthemisphere.com/
# 
mtllib pallet.mtl
# object pallet_piv
g pallet_piv
v 65.00000 -0.00001 79.29837
v 65.00000 -0.00001 99.29836
v -65.00000 -0.00001 99.29836
v -65.00000 -0.00001 79.29837
v 65.00000 1.99999 79.29837
v -65.00000 1.99999 79.29837
v -65.00000 1.99999 99.29836
v 65.00000 1.99999 99.29836
v 65.00000 1.99999 99.29836
v -65.00000 1.99999 99.29836
v -65.00000 -0.00001 99.29836
v 65.00000 -0.00001 99.29836
v 65.00000 1.99999 79.29837
v 65.00000 1.99999 99.29836
v 65.00000 -0.00001 99.29836
v 65.00000 -0.00001 79.29837
v -65.00000 1.99999 79.29837
v 65.00000 1.99999 79.29837
v 65.00000 -0.00001 79.29837
v -65.00000 -0.00001 79.29837
v -65.00000 1.99999 99.29836
v -65.00000 1.99999 79.29837
v -65.00000 -0.00001 79.29837
v -65.00000 -0.00001 99.29836
v 65.01060 1.99994 34.29837
v -64.98940 1.99999 34.29837
v -64.98940 2.00000 54.29837
v 65.01060 1.99995 54.29837
v 65.01060 -0.00006 34.29837
v 65.01060 -0.00005 54.29837
v -64.98940 0.00000 54.29837
v -64.98940 -0.00001 34.29837
v 65.01060 -0.00005 54.29837
v 65.01060 1.99995 54.29837
v -64.98940 2.00000 54.29837
v -64.98940 0.00000 54.29837
v 65.01060 -0.00006 34.29837
v 65.01060 1.99994 34.29837
v 65.01060 1.99995 54.29837
v 65.01060 -0.00005 54.29837
v -64.98940 -0.00001 34.29837
v -64.98940 1.99999 34.29837
v 65.01060 1.99994 34.29837
v 65.01060 -0.00006 34.29837
v -64.98940 0.00000 54.29837
v -64.98940 2.00000 54.29837
v -64.98940 1.99999 34.29837
v -64.98940 -0.00001 34.29837
v 65.01060 -0.00006 -10.70163
v 65.01060 -0.00004 9.29837
v -64.98940 -0.00004 9.29837
v -64.98940 -0.00006 -10.70163
v 65.01060 1.99994 -10.70163
v -64.98940 1.99994 -10.70163
v -64.98940 1.99996 9.29837
v 65.01060 1.99996 9.29837
v 65.01060 1.99996 9.29837
v -64.98940 1.99996 9.29837
v -64.98940 -0.00004 9.29837
v 65.01060 -0.00004 9.29837
v 65.01060 1.99994 -10.70163
v 65.01060 1.99996 9.29837
v 65.01060 -0.00004 9.29837
v 65.01060 -0.00006 -10.70163
v -64.98940 1.99994 -10.70163
v 65.01060 1.99994 -10.70163
v 65.01060 -0.00006 -10.70163
v -64.98940 -0.00006 -10.70163
v -64.98940 1.99996 9.29837
v -64.98940 1.99994 -10.70163
v -64.98940 -0.00006 -10.70163
v -64.98940 -0.00004 9.29837
v -64.98940 14.99994 -10.70164
v 65.01060 14.99994 -10.70164
v 65.01060 14.99995 9.29836
v -64.98940 14.99995 9.29836
v -64.98940 16.99994 -10.70164
v -64.98940 16.99995 9.29836
v 65.01060 16.99995 9.29836
v 65.01060 16.99994 -10.70164
v -64.98940 16.99995 9.29836
v -64.98940 14.99995 9.29836
v 65.01060 14.99995 9.29836
v 65.01060 16.99995 9.29836
v -64.98940 16.99994 -10.70164
v -64.98940 14.99994 -10.70164
v -64.98940 14.99995 9.29836
v -64.98940 16.99995 9.29836
v 65.01060 16.99994 -10.70164
v 65.01060 14.99994 -10.70164
v -64.98940 14.99994 -10.70164
v -64.98940 16.99994 -10.70164
v 65.01060 16.99995 9.29836
v 65.01060 14.99995 9.29836
v 65.01060 14.99994 -10.70164
v 65.01060 16.99994 -10.70164
v 65.01060 14.99997 54.29834
v -64.98940 14.99997 54.29835
v -64.98940 14.99996 34.29836
v 65.01060 14.99996 34.29834
v 65.01060 16.99997 54.29834
v 65.01060 16.99997 34.29834
v -64.98940 16.99997 34.29836
v -64.98940 16.99997 54.29835
v 65.01060 16.99997 34.29834
v 65.01060 14.99996 34.29834
v -64.98940 14.99996 34.29836
v -64.98940 16.99997 34.29836
v 65.01060 16.99997 54.29834
v 65.01060 14.99997 54.29834
v 65.01060 14.99996 34.29834
v 65.01060 16.99997 34.29834
v -64.98940 16.99997 54.29835
v -64.98940 14.99997 54.29835
v 65.01060 14.99997 54.29834
v 65.01060 16.99997 54.29834
v -64.98940 16.99997 34.29836
v -64.98940 14.99996 34.29836
v -64.98940 14.99997 54.29835
v -64.98940 16.99997 54.29835
v -64.98940 16.99998 99.29836
v 65.01060 16.99998 99.29836
v 65.01060 16.99998 79.29836
v -64.98940 16.99998 79.29836
v -64.98940 14.99998 99.29836
v -64.98940 14.99998 79.29836
v 65.01060 14.99998 79.29836
v 65.01060 14.99998 99.29836
v -64.98940 14.99998 79.29836
v -64.98940 16.99998 79.29836
v 65.01060 16.99998 79.29836
v 65.01060 14.99998 79.29836
v -64.98940 14.99998 99.29836
v -64.98940 16.99998 99.29836
v -64.98940 16.99998 79.29836
v -64.98940 14.99998 79.29836
v 65.01060 14.99998 99.29836
v 65.01060 16.99998 99.29836
v -64.98940 16.99998 99.29836
v -64.98940 14.99998 99.29836
v 65.01060 14.99998 79.29836
v 65.01060 16.99998 79.29836
v 65.01060 16.99998 99.29836
v 65.01060 14.99998 99.29836
v -65.98940 1.99995 -11.20163
v -44.98940 1.99995 -11.20163
v -44.98940 1.99999 99.79836
v -65.98940 1.99999 99.79836
v -65.98940 14.99994 -11.20164
v -65.98940 14.99998 99.79836
v -44.98940 14.99998 99.79836
v -44.98940 14.99994 -11.20164
v -65.98940 14.99998 99.79836
v -65.98940 1.99999 99.79836
v -44.98940 1.99999 99.79836
v -44.98940 14.99998 99.79836
v -65.98940 14.99994 -11.20164
v -65.98940 1.99995 -11.20163
v -65.98940 1.99999 99.79836
v -65.98940 14.99998 99.79836
v -44.98940 14.99994 -11.20164
v -44.98940 1.99995 -11.20163
v -65.98940 1.99995 -11.20163
v -65.98940 14.99994 -11.20164
v -44.98940 14.99998 99.79836
v -44.98940 1.99999 99.79836
v -44.98940 1.99995 -11.20163
v -44.98940 14.99994 -11.20164
v -10.48940 14.99998 99.79836
v 10.51060 14.99998 99.79836
v 10.51060 14.99995 -11.20164
v -10.48940 14.99995 -11.20164
v -10.48940 1.99998 99.79833
v -10.48940 1.99995 -11.20164
v 10.51060 1.99995 -11.20164
v 10.51060 1.99998 99.79833
v -10.48940 1.99995 -11.20164
v -10.48940 14.99995 -11.20164
v 10.51060 14.99995 -11.20164
v 10.51060 1.99995 -11.20164
v -10.48940 1.99998 99.79833
v -10.48940 14.99998 99.79836
v -10.48940 14.99995 -11.20164
v -10.48940 1.99995 -11.20164
v 10.51060 1.99998 99.79833
v 10.51060 14.99998 99.79836
v -10.48940 14.99998 99.79836
v -10.48940 1.99998 99.79833
v 10.51060 1.99995 -11.20164
v 10.51060 14.99995 -11.20164
v 10.51060 14.99998 99.79836
v 10.51060 1.99998 99.79833
v 66.01061 1.99999 99.79836
v 45.01060 1.99999 99.79836
v 45.01059 1.99995 -11.20163
v 66.01058 1.99995 -11.20163
v 66.01061 14.99998 99.79836
v 66.01058 14.99994 -11.20164
v 45.01059 14.99994 -11.20164
v 45.01060 14.99998 99.79836
v 66.01058 14.99994 -11.20164
v 66.01058 1.99995 -11.20163
v 45.01059 1.99995 -11.20163
v 45.01059 14.99994 -11.20164
v 66.01061 14.99998 99.79836
v 66.01061 1.99999 99.79836
v 66.01058 1.99995 -11.20163
v 66.01058 14.99994 -11.20164
v 45.01060 14.99998 99.79836
v 45.01060 1.99999 99.79836
v 66.01061 1.99999 99.79836
v 66.01061 14.99998 99.79836
v 45.01059 14.99994 -11.20164
v 45.01059 1.99995 -11.20163
v 45.01060 1.99999 99.79836
v 45.01060 14.99998 99.79836
v -9.98941 18.99999 99.79836
v 10.01059 18.99999 99.79836
v 10.01061 18.99995 -11.20164
v -9.98939 18.99995 -11.20164
v -9.98941 16.99999 99.79836
v -9.98939 16.99995 -11.20164
v 10.01061 16.99995 -11.20164
v 10.01059 16.99999 99.79836
v 10.01059 16.99999 99.79836
v 10.01061 16.99995 -11.20164
v 10.01061 18.99995 -11.20164
v 10.01059 18.99999 99.79836
v -9.98941 16.99999 99.79836
v 10.01059 16.99999 99.79836
v 10.01059 18.99999 99.79836
v -9.98941 18.99999 99.79836
v -9.98939 16.99995 -11.20164
v -9.98941 16.99999 99.79836
v -9.98941 18.99999 99.79836
v -9.98939 18.99995 -11.20164
v 10.01061 16.99995 -11.20164
v -9.98939 16.99995 -11.20164
v -9.98939 18.99995 -11.20164
v 10.01061 18.99995 -11.20164
v -45.48941 16.99998 99.79836
v -65.48940 16.99999 99.79836
v -65.48940 16.99995 -11.20164
v -45.48940 16.99994 -11.20164
v -45.48940 18.99998 99.79836
v -45.48940 18.99994 -11.20164
v -65.48939 18.99995 -11.20164
v -65.48940 18.99999 99.79836
v -65.48940 18.99999 99.79836
v -65.48939 18.99995 -11.20164
v -65.48940 16.99995 -11.20164
v -65.48940 16.99999 99.79836
v -45.48940 18.99998 99.79836
v -65.48940 18.99999 99.79836
v -65.48940 16.99999 99.79836
v -45.48941 16.99998 99.79836
v -45.48940 18.99994 -11.20164
v -45.48940 18.99998 99.79836
v -45.48941 16.99998 99.79836
v -45.48940 16.99994 -11.20164
v -65.48939 18.99995 -11.20164
v -45.48940 18.99994 -11.20164
v -45.48940 16.99994 -11.20164
v -65.48940 16.99995 -11.20164
v 65.51060 18.99997 99.79836
v 65.51059 18.99996 -11.20164
v 45.51059 18.99996 -11.20164
v 45.51060 18.99997 99.79836
v 65.51060 16.99997 99.79836
v 45.51060 16.99997 99.79836
v 45.51059 16.99996 -11.20164
v 65.51059 16.99996 -11.20164
v 45.51060 16.99997 99.79836
v 45.51060 18.99997 99.79836
v 45.51059 18.99996 -11.20164
v 45.51059 16.99996 -11.20164
v 65.51060 16.99997 99.79836
v 65.51060 18.99997 99.79836
v 45.51060 18.99997 99.79836
v 45.51060 16.99997 99.79836
v 65.51059 16.99996 -11.20164
v 65.51059 18.99996 -11.20164
v 65.51060 18.99997 99.79836
v 65.51060 16.99997 99.79836
v 45.51059 16.99996 -11.20164
v 45.51059 18.99996 -11.20164
v 65.51059 18.99996 -11.20164
v 65.51059 16.99996 -11.20164
v -17.73939 16.99993 -11.20164
v -17.73941 17.00001 99.79836
v -37.73941 17.00000 99.79836
v -37.73939 16.99992 -11.20164
v -17.73940 18.99993 -11.20164
v -37.73939 18.99992 -11.20164
v -37.73941 19.00000 99.79836
v -17.73941 19.00001 99.79836
v -37.73939 18.99992 -11.20164
v -37.73939 16.99992 -11.20164
v -37.73941 17.00000 99.79836
v -37.73941 19.00000 99.79836
v -17.73940 18.99993 -11.20164
v -17.73939 16.99993 -11.20164
v -37.73939 16.99992 -11.20164
v -37.73939 18.99992 -11.20164
v -17.73941 19.00001 99.79836
v -17.73941 17.00001 99.79836
v -17.73939 16.99993 -11.20164
v -17.73940 18.99993 -11.20164
v -37.73941 19.00000 99.79836
v -37.73941 17.00000 99.79836
v -17.73941 17.00001 99.79836
v -17.73941 19.00001 99.79836
v 17.76060 18.99993 -11.20164
v 17.76059 19.00001 99.79833
v 37.76059 19.00000 99.79836
v 37.76060 18.99993 -11.20164
v 17.76060 16.99993 -11.20164
v 37.76060 16.99993 -11.20164
v 37.76059 17.00000 99.79836
v 17.76059 17.00001 99.79833
v 37.76060 16.99993 -11.20164
v 37.76060 18.99993 -11.20164
v 37.76059 19.00000 99.79836
v 37.76059 17.00000 99.79836
v 17.76060 16.99993 -11.20164
v 17.76060 18.99993 -11.20164
v 37.76060 18.99993 -11.20164
v 37.76060 16.99993 -11.20164
v 17.76059 17.00001 99.79833
v 17.76059 19.00001 99.79833
v 17.76060 18.99993 -11.20164
v 17.76060 16.99993 -11.20164
v 37.76059 17.00000 99.79836
v 37.76059 19.00000 99.79836
v 17.76059 19.00001 99.79833
v 17.76059 17.00001 99.79833
# 336 verticies
vt 0.94205 0.07202
vt 0.94205 0.11762
vt 0.64565 0.11762
vt 0.64565 0.07202
vt 0.29641 0.18964
vt 0.00000 0.18964
vt 0.00000 0.14404
vt 0.29641 0.14404
vt 0.88552 0.80360
vt 0.58912 0.80360
vt 0.58912 0.79904
vt 0.88552 0.79904
vt 0.90761 0.90180
vt 0.86201 0.90180
vt 0.86201 0.89724
vt 0.90761 0.89724
vt 0.58912 0.84849
vt 0.88552 0.84849
vt 0.88552 0.85305
vt 0.58912 0.85305
vt 0.00000 0.99544
vt 0.04560 0.99544
vt 0.04560 1.00000
vt 0.00000 1.00000
vt 0.61923 0.26166
vt 0.32282 0.26166
vt 0.32282 0.21605
vt 0.61923 0.21605
vt 0.94205 0.14404
vt 0.94205 0.18964
vt 0.64565 0.18964
vt 0.64565 0.14404
vt 0.56930 0.79904
vt 0.56930 0.80360
vt 0.27290 0.80360
vt 0.27290 0.79904
vt 0.95180 0.50869
vt 0.95180 0.51325
vt 0.90620 0.51325
vt 0.90620 0.50869
vt 0.55240 0.73158
vt 0.55240 0.72702
vt 0.84880 0.72702
vt 0.84880 0.73158
vt 0.86862 0.73158
vt 0.86862 0.72702
vt 0.91422 0.72702
vt 0.91422 0.73158
vt 0.61923 0.14404
vt 0.61923 0.18964
vt 0.32282 0.18964
vt 0.32282 0.14404
vt 0.29641 0.33367
vt 0.00000 0.33367
vt 0.00000 0.28807
vt 0.29641 0.28807
vt 0.56930 0.92617
vt 0.27290 0.92617
vt 0.27290 0.92161
vt 0.56930 0.92161
vt 0.98852 0.29263
vt 0.94292 0.29263
vt 0.94292 0.28807
vt 0.98852 0.28807
vt 0.27290 0.89724
vt 0.56930 0.89724
vt 0.56930 0.90180
vt 0.27290 0.90180
vt 0.83851 0.40954
vt 0.88411 0.40954
vt 0.88411 0.41410
vt 0.83851 0.41410
vt 0.32282 0.07202
vt 0.61923 0.07202
vt 0.61923 0.11762
vt 0.32282 0.11762
vt 0.32282 0.04560
vt 0.32282 0.00000
vt 0.61923 0.00000
vt 0.61923 0.04560
vt 0.55240 0.75596
vt 0.55240 0.75139
vt 0.84880 0.75139
vt 0.84880 0.75596
vt 0.90620 0.43895
vt 0.90620 0.43439
vt 0.95180 0.43439
vt 0.95180 0.43895
vt 0.88552 0.87287
vt 0.88552 0.87743
vt 0.58912 0.87743
vt 0.58912 0.87287
vt 0.59140 0.99473
vt 0.59140 0.99929
vt 0.54579 0.99929
vt 0.54579 0.99473
vt 0.29641 0.04560
vt 0.00000 0.04560
vt 0.00000 0.00000
vt 0.29641 0.00000
vt 0.29641 0.07202
vt 0.29641 0.11762
vt 0.00000 0.11762
vt 0.00000 0.07202
vt 0.27290 0.82797
vt 0.27290 0.82341
vt 0.56930 0.82341
vt 0.56930 0.82797
vt 0.83851 0.56270
vt 0.83851 0.55814
vt 0.88411 0.55814
vt 0.88411 0.56270
vt 0.88552 0.82341
vt 0.88552 0.82797
vt 0.58912 0.82797
vt 0.58912 0.82341
vt 0.91422 0.75139
vt 0.91422 0.75596
vt 0.86862 0.75596
vt 0.86862 0.75139
vt 0.00000 0.21605
vt 0.29641 0.21605
vt 0.29641 0.26166
vt 0.00000 0.26166
vt 0.64565 0.04560
vt 0.64565 0.00000
vt 0.94205 0.00000
vt 0.94205 0.04560
vt 0.56930 0.84849
vt 0.56930 0.85305
vt 0.27290 0.85305
vt 0.27290 0.84849
vt 0.95180 0.36009
vt 0.95180 0.36465
vt 0.90620 0.36465
vt 0.90620 0.36009
vt 0.27290 0.87743
vt 0.27290 0.87287
vt 0.56930 0.87287
vt 0.56930 0.87743
vt 0.90533 0.85305
vt 0.90533 0.84849
vt 0.95093 0.84849
vt 0.95093 0.85305
vt 0.53259 0.43439
vt 0.53259 0.48227
vt 0.27950 0.48227
vt 0.27950 0.43439
vt 0.27950 0.36009
vt 0.53259 0.36009
vt 0.53259 0.40797
vt 0.27950 0.40797
vt 0.83851 0.53833
vt 0.83851 0.50869
vt 0.88639 0.50869
vt 0.88639 0.53833
vt 0.60232 0.31771
vt 0.60232 0.28807
vt 0.85541 0.28807
vt 0.85541 0.31771
vt 0.92310 0.28807
vt 0.92310 0.31771
vt 0.87522 0.31771
vt 0.87522 0.28807
vt 0.53259 0.72702
vt 0.53259 0.75666
vt 0.27950 0.75666
vt 0.27950 0.72702
vt 0.81209 0.36009
vt 0.81209 0.40797
vt 0.55900 0.40797
vt 0.55900 0.36009
vt 0.00000 0.50869
vt 0.25308 0.50869
vt 0.25308 0.55657
vt 0.00000 0.55657
vt 0.88639 0.36009
vt 0.88639 0.38973
vt 0.83851 0.38973
vt 0.83851 0.36009
vt 0.81209 0.58299
vt 0.81209 0.61263
vt 0.55900 0.61263
vt 0.55900 0.58299
vt 0.83851 0.46403
vt 0.83851 0.43439
vt 0.88639 0.43439
vt 0.88639 0.46403
vt 0.00000 0.87813
vt 0.00000 0.84849
vt 0.25308 0.84849
vt 0.25308 0.87813
vt 0.00000 0.48227
vt 0.00000 0.43439
vt 0.25308 0.43439
vt 0.25308 0.48227
vt 0.25308 0.40797
vt 0.00000 0.40797
vt 0.00000 0.36009
vt 0.25308 0.36009
vt 0.92515 0.24570
vt 0.92515 0.21605
vt 0.97303 0.21605
vt 0.97303 0.24570
vt 0.00000 0.82868
vt 0.00000 0.79904
vt 0.25308 0.79904
vt 0.25308 0.82868
vt 0.87978 0.58299
vt 0.87978 0.61263
vt 0.83190 0.61263
vt 0.83190 0.58299
vt 0.81209 0.65500
vt 0.81209 0.68464
vt 0.55900 0.68464
vt 0.55900 0.65500
vt 0.53259 0.50869
vt 0.53259 0.55429
vt 0.27950 0.55429
vt 0.27950 0.50869
vt 0.00000 0.58299
vt 0.25308 0.58299
vt 0.25308 0.62859
vt 0.00000 0.62859
vt 0.00000 0.92232
vt 0.25308 0.92232
vt 0.25308 0.92688
vt 0.00000 0.92688
vt 0.89731 0.65500
vt 0.94292 0.65500
vt 0.94292 0.65956
vt 0.89731 0.65956
vt 0.25308 0.95125
vt 0.00000 0.95125
vt 0.00000 0.94669
vt 0.25308 0.94669
vt 0.95093 0.82797
vt 0.90533 0.82797
vt 0.90533 0.82341
vt 0.95093 0.82341
vt 0.27950 0.62859
vt 0.27950 0.58299
vt 0.53259 0.58299
vt 0.53259 0.62859
vt 0.57591 0.33367
vt 0.32282 0.33367
vt 0.32282 0.28807
vt 0.57591 0.28807
vt 0.79888 0.95055
vt 0.54579 0.95055
vt 0.54579 0.94599
vt 0.79888 0.94599
vt 0.95093 0.87743
vt 0.90533 0.87743
vt 0.90533 0.87287
vt 0.95093 0.87287
vt 0.27290 0.97036
vt 0.52598 0.97036
vt 0.52598 0.97492
vt 0.27290 0.97492
vt 0.81869 0.97036
vt 0.86429 0.97036
vt 0.86429 0.97492
vt 0.81869 0.97492
vt 0.25308 0.77262
vt 0.00000 0.77262
vt 0.00000 0.72702
vt 0.25308 0.72702
vt 0.55900 0.47999
vt 0.55900 0.43439
vt 0.81209 0.43439
vt 0.81209 0.47999
vt 0.52598 0.94599
vt 0.52598 0.95055
vt 0.27290 0.95055
vt 0.27290 0.94599
vt 0.87750 0.67938
vt 0.87750 0.68394
vt 0.83190 0.68394
vt 0.83190 0.67938
vt 0.00000 0.90251
vt 0.00000 0.89795
vt 0.25308 0.89795
vt 0.25308 0.90251
vt 0.81869 0.95055
vt 0.81869 0.94599
vt 0.86429 0.94599
vt 0.86429 0.95055
vt 0.81209 0.55429
vt 0.55900 0.55429
vt 0.55900 0.50869
vt 0.81209 0.50869
vt 0.00000 0.70060
vt 0.00000 0.65500
vt 0.25308 0.65500
vt 0.25308 0.70060
vt 0.27290 0.99929
vt 0.27290 0.99473
vt 0.52598 0.99473
vt 0.52598 0.99929
vt 0.89959 0.58755
vt 0.89959 0.58299
vt 0.94520 0.58299
vt 0.94520 0.58755
vt 0.25308 0.97107
vt 0.25308 0.97563
vt 0.00000 0.97563
vt 0.00000 0.97107
vt 0.87750 0.65500
vt 0.87750 0.65956
vt 0.83190 0.65956
vt 0.83190 0.65500
vt 0.27950 0.65500
vt 0.53259 0.65500
vt 0.53259 0.70060
vt 0.27950 0.70060
vt 0.89873 0.21605
vt 0.89873 0.26166
vt 0.64565 0.26166
vt 0.64565 0.21605
vt 0.79888 0.97036
vt 0.79888 0.97492
vt 0.54580 0.97492
vt 0.54580 0.97036
vt 0.88411 0.48384
vt 0.88411 0.48840
vt 0.83851 0.48840
vt 0.83851 0.48384
vt 0.58912 0.90180
vt 0.58912 0.89724
vt 0.84220 0.89724
vt 0.84220 0.90180
vt 0.90533 0.80360
vt 0.90533 0.79904
vt 0.95093 0.79904
vt 0.95093 0.80360
# 336 texture verticies
vn 0.00000 -1.00000 0.00000
vn 0.00000 1.00000 0.00000
vn 0.00000 0.00000 1.00000
vn 1.00000 0.00000 0.00000
vn 0.00000 0.00000 -1.00000
vn -1.00000 0.00000 0.00000
vn -1.00000 0.00001 0.00000
vn 1.00000 -0.00001 0.00000
vn 1.00000 0.00001 0.00000
# 9 normals
usemtl ____Default
f  1/1/1 2/2/1 3/3/1
f  3/3/1 4/4/1 1/1/1
f  5/5/2 6/6/2 7/7/2
f  7/7/2 8/8/2 5/5/2
f  9/9/3 10/10/3 11/11/3
f  11/11/3 12/12/3 9/9/3
f  13/13/4 14/14/4 15/15/4
f  15/15/4 16/16/4 13/13/4
f  17/17/5 18/18/5 19/19/5
f  19/19/5 20/20/5 17/17/5
f  21/21/6 22/22/6 23/23/6
f  23/23/6 24/24/6 21/21/6
f  25/25/2 26/26/2 27/27/2
f  27/27/2 28/28/2 25/25/2
f  29/29/1 30/30/1 31/31/1
f  31/31/1 32/32/1 29/29/1
f  33/33/3 34/34/3 35/35/3
f  35/35/3 36/36/3 33/33/3
f  37/37/4 38/38/4 39/39/4
f  39/39/4 40/40/4 37/37/4
f  41/41/5 42/42/5 43/43/5
f  43/43/5 44/44/5 41/41/5
f  45/45/6 46/46/6 47/47/6
f  47/47/6 48/48/6 45/45/6
f  49/49/1 50/50/1 51/51/1
f  51/51/1 52/52/1 49/49/1
f  53/53/2 54/54/2 55/55/2
f  55/55/2 56/56/2 53/53/2
f  57/57/3 58/58/3 59/59/3
f  59/59/3 60/60/3 57/57/3
f  61/61/4 62/62/4 63/63/4
f  63/63/4 64/64/4 61/61/4
f  65/65/5 66/66/5 67/67/5
f  67/67/5 68/68/5 65/65/5
f  69/69/6 70/70/6 71/71/6
f  71/71/6 72/72/6 69/69/6
f  73/73/1 74/74/1 75/75/1
f  75/75/1 76/76/1 73/73/1
f  77/77/2 78/78/2 79/79/2
f  79/79/2 80/80/2 77/77/2
f  81/81/3 82/82/3 83/83/3
f  83/83/3 84/84/3 81/81/3
f  85/85/6 86/86/6 87/87/6
f  87/87/6 88/88/6 85/85/6
f  89/89/5 90/90/5 91/91/5
f  91/91/5 92/92/5 89/89/5
f  93/93/4 94/94/4 95/95/4
f  95/95/4 96/96/4 93/93/4
f  97/97/1 98/98/1 99/99/1
f  99/99/1 100/100/1 97/97/1
f  101/101/2 102/102/2 103/103/2
f  103/103/2 104/104/2 101/101/2
f  105/105/5 106/106/5 107/107/5
f  107/107/5 108/108/5 105/105/5
f  109/109/4 110/110/4 111/111/4
f  111/111/4 112/112/4 109/109/4
f  113/113/3 114/114/3 115/115/3
f  115/115/3 116/116/3 113/113/3
f  117/117/6 118/118/6 119/119/6
f  119/119/6 120/120/6 117/117/6
f  121/121/2 122/122/2 123/123/2
f  123/123/2 124/124/2 121/121/2
f  125/125/1 126/126/1 127/127/1
f  127/127/1 128/128/1 125/125/1
f  129/129/5 130/130/5 131/131/5
f  131/131/5 132/132/5 129/129/5
f  133/133/6 134/134/6 135/135/6
f  135/135/6 136/136/6 133/133/6
f  137/137/3 138/138/3 139/139/3
f  139/139/3 140/140/3 137/137/3
f  141/141/4 142/142/4 143/143/4
f  143/143/4 144/144/4 141/141/4
f  145/145/1 146/146/1 147/147/1
f  147/147/1 148/148/1 145/145/1
f  149/149/2 150/150/2 151/151/2
f  151/151/2 152/152/2 149/149/2
f  153/153/3 154/154/3 155/155/3
f  155/155/3 156/156/3 153/153/3
f  157/157/6 158/158/6 159/159/6
f  159/159/6 160/160/6 157/157/6
f  161/161/5 162/162/5 163/163/5
f  163/163/5 164/164/5 161/161/5
f  165/165/4 166/166/4 167/167/4
f  167/167/4 168/168/4 165/165/4
f  169/169/2 170/170/2 171/171/2
f  171/171/2 172/172/2 169/169/2
f  173/173/1 174/174/1 175/175/1
f  175/175/1 176/176/1 173/173/1
f  177/177/5 178/178/5 179/179/5
f  179/179/5 180/180/5 177/177/5
f  181/181/6 182/182/6 183/183/6
f  183/183/6 184/184/6 181/181/6
f  185/185/3 186/186/3 187/187/3
f  187/187/3 188/188/3 185/185/3
f  189/189/4 190/190/4 191/191/4
f  191/191/4 192/192/4 189/189/4
f  193/193/1 194/194/1 195/195/1
f  195/195/1 196/196/1 193/193/1
f  197/197/2 198/198/2 199/199/2
f  199/199/2 200/200/2 197/197/2
f  201/201/5 202/202/5 203/203/5
f  203/203/5 204/204/5 201/201/5
f  205/205/4 206/206/4 207/207/4
f  207/207/4 208/208/4 205/205/4
f  209/209/3 210/210/3 211/211/3
f  211/211/3 212/212/3 209/209/3
f  213/213/6 214/214/6 215/215/6
f  215/215/6 216/216/6 213/213/6
f  217/217/2 218/218/2 219/219/2
f  219/219/2 220/220/2 217/217/2
f  221/221/1 222/222/1 223/223/1
f  223/223/1 224/224/1 221/221/1
f  225/225/4 226/226/4 227/227/4
f  227/227/4 228/228/4 225/225/4
f  229/229/3 230/230/3 231/231/3
f  231/231/3 232/232/3 229/229/3
f  233/233/6 234/234/6 235/235/6
f  235/235/6 236/236/6 233/233/6
f  237/237/5 238/238/5 239/239/5
f  239/239/5 240/240/5 237/237/5
f  241/241/1 242/242/1 243/243/1
f  243/243/1 244/244/1 241/241/1
f  245/245/2 246/246/2 247/247/2
f  247/247/2 248/248/2 245/245/2
f  249/249/6 250/250/7 251/251/6
f  251/251/6 252/252/6 249/249/6
f  253/253/3 254/254/3 255/255/3
f  255/255/3 256/256/3 253/253/3
f  257/257/4 258/258/8 259/259/4
f  259/259/4 260/260/4 257/257/4
f  261/261/5 262/262/5 263/263/5
f  263/263/5 264/264/5 261/261/5
f  265/265/2 266/266/2 267/267/2
f  267/267/2 268/268/2 265/265/2
f  269/269/1 270/270/1 271/271/1
f  271/271/1 272/272/1 269/269/1
f  273/273/6 274/274/6 275/275/6
f  275/275/6 276/276/6 273/273/6
f  277/277/3 278/278/3 279/279/3
f  279/279/3 280/280/3 277/277/3
f  281/281/4 282/282/4 283/283/4
f  283/283/4 284/284/4 281/281/4
f  285/285/5 286/286/5 287/287/5
f  287/287/5 288/288/5 285/285/5
f  289/289/1 290/290/1 291/291/1
f  291/291/1 292/292/1 289/289/1
f  293/293/2 294/294/2 295/295/2
f  295/295/2 296/296/2 293/293/2
f  297/297/6 298/298/6 299/299/6
f  299/299/6 300/300/6 297/297/6
f  301/301/5 302/302/5 303/303/5
f  303/303/5 304/304/5 301/301/5
f  305/305/4 306/306/4 307/307/4
f  307/307/4 308/308/9 305/305/4
f  309/309/3 310/310/3 311/311/3
f  311/311/3 312/312/3 309/309/3
f  313/313/2 314/314/2 315/315/2
f  315/315/2 316/316/2 313/313/2
f  317/317/1 318/318/1 319/319/1
f  319/319/1 320/320/1 317/317/1
f  321/321/4 322/322/4 323/323/4
f  323/323/4 324/324/4 321/321/4
f  325/325/5 326/326/5 327/327/5
f  327/327/5 328/328/5 325/325/5
f  329/329/6 330/330/6 331/331/6
f  331/331/6 332/332/6 329/329/6
f  333/333/3 334/334/3 335/335/3
f  335/335/3 336/336/3 333/333/3
