# 
# Wavefront OBJ file
# Converted by the DEEP Exploration Deep Exploration 5 5.0.2.1477 Release
# Right Hemisphere, LTD
# http://www.righthemisphere.com/
# 
mtllib box.mtl
# object box
g box
v -30.10559 -0.13307 -14.90408
v 29.89441 -0.13307 -14.93018
v 29.90748 -0.13307 15.06983
v -30.09251 -0.13307 15.09593
v -30.10559 69.86692 -14.90408
v -30.09251 69.86692 15.09593
v 29.90748 69.86692 15.06983
v 29.89441 69.86692 -14.93017
v 29.89441 69.86692 -14.93017
v 29.90748 69.86692 15.06983
v 29.90748 -0.13307 15.06983
v 29.89441 -0.13307 -14.93018
v -30.10559 69.86692 -14.90408
v 29.89441 69.86692 -14.93017
v 29.89441 -0.13307 -14.93018
v -30.10559 -0.13307 -14.90408
v -30.09251 69.86692 15.09593
v -30.10559 69.86692 -14.90408
v -30.10559 -0.13307 -14.90408
v -30.09251 -0.13307 15.09593
v 29.90748 69.86692 15.06983
v -30.09251 69.86692 15.09593
v -30.09251 -0.13307 15.09593
v 29.90748 -0.13307 15.06983
# 24 verticies
vt 0.91596 0.84970
vt 0.51298 0.84970
vt 0.51298 0.64822
vt 0.91596 0.64822
vt 0.51149 0.64008
vt 0.51149 0.43859
vt 0.91447 0.43859
vt 0.91447 0.64008
vt 0.02236 0.64008
vt 0.02236 0.43859
vt 0.49250 0.43859
vt 0.49250 0.64008
vt 0.51149 0.42231
vt 0.51149 0.01933
vt 0.98163 0.01933
vt 0.98163 0.42231
vt 0.02236 0.84943
vt 0.02236 0.64794
vt 0.49250 0.64794
vt 0.49250 0.84943
vt 0.02236 0.42231
vt 0.02236 0.01933
vt 0.49250 0.01933
vt 0.49250 0.42231
# 24 texture verticies
vn 0.00000 -1.00000 -0.00000
vn 0.00000 1.00000 0.00000
vn 1.00000 0.00000 -0.00044
vn -0.00044 0.00000 -1.00000
vn -1.00000 -0.00000 0.00044
vn 0.00044 -0.00000 1.00000
# 6 normals
usemtl forklift_box
f  1/1/1 2/2/1 3/3/1
f  3/3/1 4/4/1 1/1/1
f  5/5/2 6/6/2 7/7/2
f  7/7/2 8/8/2 5/5/2
f  9/9/3 10/10/3 11/11/3
f  11/11/3 12/12/3 9/9/3
f  13/13/4 14/14/4 15/15/4
f  15/15/4 16/16/4 13/13/4
f  17/17/5 18/18/5 19/19/5
f  19/19/5 20/20/5 17/17/5
f  21/21/6 22/22/6 23/23/6
f  23/23/6 24/24/6 21/21/6
