# OBJ Export by Luxion KeyShot

mtllib Hinge_Pin_2.mtl

g 539905270
usemtl Steel Rough
v -6.6 5.66688 -30.5369
v -6.6 6.55074 -30.903
v 6.61074e-12 6.55074 -30.903
v -6.6 6.55074 -30.903
v 6.6 7.43459 -30.5368
v 6.6 6.55074 -30.903
v 6.61074e-12 6.55074 -30.903
v 6.6 6.55074 -30.903
v -6.6 5.30074 -29.653
v -6.6 7.4346 -30.5369
v 6.6 7.80073 -29.653
v 6.6 5.66687 -30.5369
v -6.6 5.6669 -28.7692
v 6.6 5.30074 -29.653
v -6.6 6.55074 -28.403
v 6.6 5.6669 -28.7691
v -6.6 7.43458 -28.7692
v 6.6 6.55074 -28.403
v -6.6 7.80074 -29.653
v 6.6 7.43458 -28.7692
v -3.3 7.4346 -30.5369
v 3.3 7.4346 -30.5369
v -3.3 5.66688 -30.5369
v 3.3 5.66688 -30.5369
v 6.60853e-12 5.39586 -29.1746
v 6.61255e-12 5.30074 -29.653
v 6.60345e-12 5.6669 -28.7692
v 6.5988e-12 6.07235 -28.4981
v 6.59561e-12 6.55074 -28.403
v 6.59353e-12 7.02913 -28.4981
v 6.59365e-12 7.43458 -28.7692
v 6.5963e-12 7.70562 -29.1746
v 6.60002e-12 7.80074 -29.653
v -6.6 7.78815 -30.8904
v -6.6 6.55074 -31.403
v -6.85 5.31333 -30.8904
v -6.85 6.55074 -31.403
v -6.6 6.55074 -31.403
v -6.85 4.80074 -29.653
v -6.6 5.31333 -30.8904
v -6.85 5.31333 -28.4156
v -6.6 4.80074 -29.653
v -6.6 5.31333 -28.4156
v -6.85 6.55074 -27.903
v -6.6 6.55074 -27.903
v -6.85 7.78818 -28.4156
v -6.6 7.78815 -28.4156
v -6.85 8.30073 -29.653
v -6.6 8.30074 -29.653
v -6.85 7.78818 -30.8904
v -6.85 6.55074 -31.403
v -6.85 7.78818 -30.8904
v -6.85 6.55074 -31.403
v -6.85 5.31333 -30.8904
v -6.85 4.80074 -29.653
v -6.85 5.31333 -28.4156
v -6.85 6.55074 -27.903
v -6.85 7.78818 -28.4156
v -6.85 8.30073 -29.653
v -6.6 5.66688 -30.5369
v -6.6 8.30074 -29.653
v -6.6 7.4346 -30.5369
v -6.6 7.78815 -28.4156
v -6.6 7.80074 -29.653
v -6.6 6.55074 -27.903
v -6.6 7.43458 -28.7692
v -6.6 5.31333 -28.4156
v -6.6 6.55074 -28.403
v -6.6 4.80074 -29.653
v -6.6 5.6669 -28.7692
v -6.6 5.31333 -30.8904
v -6.6 5.30074 -29.653
v -6.6 7.78815 -30.8904
v -6.6 6.55074 -30.903
v -6.6 6.55074 -31.403
v 6.85 4.80074 -29.653
v 6.85 6.55074 -27.903
v 6.6 6.55074 -27.903
v 6.85 5.31333 -28.4156
v 6.6 7.78815 -28.4156
v 6.6 6.55074 -27.903
v 6.85 6.55074 -27.903
v 6.6 8.30074 -29.653
v 6.85 7.78815 -28.4156
v 6.6 7.78812 -30.8904
v 6.85 8.30074 -29.653
v 6.85 7.78812 -30.8904
v 6.6 6.55074 -31.403
v 6.85 6.55074 -31.403
v 6.6 5.31336 -30.8904
v 6.6 4.80074 -29.653
v 6.85 5.31336 -30.8904
v 6.6 5.31333 -28.4156
v 6.85 5.31333 -28.4156
v 6.85 4.80074 -29.653
v 6.85 5.31336 -30.8904
v 6.85 6.55074 -31.403
v 6.85 7.78812 -30.8904
v 6.85 8.30074 -29.653
v 6.85 7.78815 -28.4156
v 6.85 6.55074 -27.903
v 6.6 5.30074 -29.653
v 6.6 5.31336 -30.8904
v 6.6 6.55074 -30.903
v 6.6 6.55074 -31.403
v 6.6 7.43459 -30.5368
v 6.6 7.78812 -30.8904
v 6.6 7.80073 -29.653
v 6.6 8.30074 -29.653
v 6.6 7.43458 -28.7692
v 6.6 7.78815 -28.4156
v 6.6 6.55074 -28.403
v 6.6 6.55074 -27.903
v 6.6 5.6669 -28.7691
v 6.6 4.80074 -29.653
v 6.6 5.66687 -30.5369
v 6.6 5.31333 -28.4156
vn 9.45805e-15 -0.707121 -0.707092
vn 8.53855e-15 -0.000412438 -1
vn 8.53456e-15 0.000412438 -1
vn 8.53456e-15 0.000412438 -1
vn 2.59604e-15 0.707121 -0.707092
vn 8.52068e-15 0.000412438 -1
vn 8.52467e-15 -0.000412438 -1
vn 8.52467e-15 -0.000412438 -1
vn 4.83354e-15 -1 -4.50503e-05
vn 2.59604e-15 0.707121 -0.707092
vn -4.83278e-15 1 -4.50503e-05
vn 9.45805e-15 -0.707121 -0.707092
vn -2.60463e-15 -0.707107 0.707107
vn 4.83354e-15 -1 -4.50503e-05
vn -8.49145e-15 -6.61367e-16 1
vn -2.60463e-15 -0.707107 0.707107
vn -9.43457e-15 0.707107 0.707107
vn -8.48451e-15 -7.10342e-16 1
vn -4.83278e-15 1 -4.50503e-05
vn -9.43948e-15 0.707107 0.707107
vn 2.59604e-15 0.707121 -0.707092
vn 2.59359e-15 0.707121 -0.707092
vn 9.45407e-15 -0.707121 -0.707092
vn 9.45652e-15 -0.707121 -0.707092
vn 1.19877e-15 -0.923807 0.382859
vn 4.83354e-15 -1 -4.50503e-05
vn -2.60463e-15 -0.707107 0.707107
vn -6.00431e-15 -0.382851 0.92381
vn -8.48451e-15 -6.65946e-16 1
vn -9.69967e-15 0.382851 0.92381
vn -9.43948e-15 0.707107 0.707107
vn -7.72557e-15 0.923807 0.382859
vn -4.83278e-15 1 -4.50503e-05
vn 1.44586e-15 0.707121 -0.707092
vn 8.45129e-15 0.000412438 -1
vn 6.96129e-15 -0.707121 -0.707092
vn 8.45528e-15 -0.000412438 -1
vn 8.45528e-15 -0.000412438 -1
vn 4.83348e-15 -1 -4.50503e-05
vn 6.80428e-15 -0.707121 -0.707092
vn -2.23108e-15 -0.707107 0.707107
vn 4.83348e-15 -1 -4.50503e-05
vn -2.23108e-15 -0.707107 0.707107
vn -8.0092e-15 -5.51657e-13 1
vn -8.0092e-15 -5.52164e-13 1
vn -1.02389e-14 0.707107 0.707107
vn -1.02389e-14 0.707107 0.707107
vn -4.83271e-15 1 -4.50503e-05
vn -4.83271e-15 1 -4.50503e-05
vn 1.44586e-15 0.707121 -0.707092
vn 8.45129e-15 0.000412438 -1
vn -1 -4.83316e-15 -8.67533e-15
vn -1 -4.83316e-15 -8.45329e-15
vn -1 -4.83316e-15 -8.45329e-15
vn -1 -4.83316e-15 -8.40797e-15
vn -1 -4.83316e-15 -8.34226e-15
vn -1 -4.83316e-15 -8.45329e-15
vn -1 -4.83316e-15 -8.45329e-15
vn -1 -4.83316e-15 -8.45329e-15
vn 1 4.83316e-15 8.5088e-15
vn 1 4.83316e-15 8.45329e-15
vn 1 4.83316e-15 8.45329e-15
vn 1 4.83316e-15 8.67533e-15
vn 1 4.83316e-15 8.67533e-15
vn 1 4.83316e-15 8.45329e-15
vn 1 4.83316e-15 8.45329e-15
vn 1 4.83316e-15 8.73084e-15
vn 1 4.83316e-15 8.45329e-15
vn 1 4.83316e-15 8.45329e-15
vn 1 4.83316e-15 8.45329e-15
vn 1 4.83316e-15 8.56431e-15
vn 1 4.83316e-15 8.73084e-15
vn 1 4.83316e-15 8.67533e-15
vn 1 4.83316e-15 8.45329e-15
vn 1 4.83316e-15 8.45329e-15
vn 4.83284e-15 -1 4.50503e-05
vn -8.45129e-15 -0.000412438 1
vn -8.45129e-15 -0.000412438 1
vn -1.38208e-15 -0.707121 0.707092
vn -9.19372e-15 0.707121 0.707092
vn -8.45528e-15 0.000412438 1
vn -8.45528e-15 0.000412438 1
vn -4.83356e-15 1 4.50503e-05
vn -9.19372e-15 0.707121 0.707092
vn 8.13087e-16 0.707107 -0.707107
vn -4.83356e-15 1 4.50503e-05
vn 7.34583e-16 0.707107 -0.707107
vn 7.56511e-15 -5.07387e-16 -1
vn 7.56511e-15 -5.07387e-16 -1
vn 8.75709e-15 -0.707107 -0.707107
vn 4.83284e-15 -1 4.50503e-05
vn 8.75709e-15 -0.707107 -0.707107
vn -1.38208e-15 -0.707121 0.707092
vn 1 4.83316e-15 8.23124e-15
vn 1 4.83316e-15 8.45329e-15
vn 1 4.83316e-15 8.45329e-15
vn 1 4.83316e-15 8.45329e-15
vn 1 4.83316e-15 8.34226e-15
vn 1 4.83316e-15 8.52488e-15
vn 1 4.83316e-15 8.34226e-15
vn 1 4.83316e-15 8.34226e-15
vn -1 -4.83316e-15 -8.45329e-15
vn -1 -4.83316e-15 -8.23124e-15
vn -1 -4.83316e-15 -8.45329e-15
vn -1 -4.83316e-15 -8.45329e-15
vn -1 -4.83316e-15 -8.17573e-15
vn -1 -4.83316e-15 -8.34226e-15
vn -1 -4.83316e-15 -8.34226e-15
vn -1 -4.83316e-15 -8.53848e-15
vn -1 -4.83316e-15 -8.39778e-15
vn -1 -4.83316e-15 -8.61982e-15
vn -1 -4.83316e-15 -8.56431e-15
vn -1 -4.83316e-15 -8.34226e-15
vn -1 -4.83316e-15 -8.23124e-15
vn -1 -4.83316e-15 -8.45329e-15
vn -1 -4.83316e-15 -8.45329e-15
vn -1 -4.83316e-15 -8.45329e-15
vt 5.49779 3.53553
vt 6.28319 3.53553
vt 0 10.1355
vt 0 3.53553
vt 0.785398 16.7355
vt 4.44089e-16 16.7355
vt 6.28319 10.1355
vt 6.28319 16.7355
vt 4.71239 3.53553
vt 0.785398 3.53553
vt 1.5708 16.7355
vt 5.49779 16.7355
vt 3.92699 3.53553
vt 4.71239 16.7355
vt 3.14159 3.53553
vt 3.92699 16.7355
vt 2.35619 3.53553
vt 3.14159 16.7355
vt 1.5708 3.53553
vt 2.35619 16.7355
vt 0.785398 6.83553
vt 0.785398 13.4355
vt 5.49779 6.83553
vt 5.49779 13.4355
vt 4.31969 10.1355
vt 4.71239 10.1355
vt 3.92699 10.1355
vt 3.53429 10.1355
vt 3.14159 10.1355
vt 2.74889 10.1355
vt 2.35619 10.1355
vt 1.9635 10.1355
vt 1.5708 10.1355
vt 0.785398 0.25
vt 0 0.25
vt 5.49779 2.34913e-16
vt 6.28319 0
vt 6.28319 0.25
vt 4.71239 4.69826e-16
vt 5.49779 0.25
vt 3.92699 7.04739e-16
vt 4.71239 0.25
vt 3.92699 0.25
vt 3.14159 0
vt 3.14159 0.25
vt 2.35619 0
vt 2.35619 0.25
vt 1.5708 0
vt 1.5708 0.25
vt 0.785398 0
vt 0 0
vt -1.23744 1.23744
vt -1.75 -8.88178e-16
vt -1.2374 -1.23741
vt 4.84549e-13 -1.75
vt 1.2374 -1.23741
vt 1.75 -9.99201e-16
vt 1.23744 1.23744
vt -4.84169e-13 1.74999
vt -0.883857 -0.883863
vt -4.8416e-13 1.75
vt -0.883857 0.883863
vt 1.2374 1.23741
vt -7.2178e-16 1.25
vt 1.75 -7.77156e-16
vt 0.883845 0.883842
vt 1.2374 -1.23741
vt 1.25 2.49957e-16
vt 4.84715e-13 -1.75
vt 0.883845 -0.883842
vt -1.2374 -1.23741
vt 1.52656e-16 -1.25
vt -1.2374 1.23741
vt -1.25 -3.33067e-16
vt -1.75 -1.11022e-16
vt 4.71239 0
vt 6.28319 0
vt 6.28319 0.25
vt 5.49779 0
vt 0.785398 0.25
vt 0 0.25
vt 0 0
vt 1.5708 0.25
vt 0.785398 0
vt 2.35619 0.25
vt 1.5708 0
vt 2.35619 0
vt 3.14159 0.25
vt 3.14159 0
vt 3.92699 0.25
vt 4.71239 0.25
vt 3.92699 0
vt 5.49779 0.25
vt 1.2374 1.23741
vt -5.55301e-16 1.75
vt -1.23738 1.23738
vt -1.75 -1.33271e-15
vt -1.23738 -1.23738
vt 1.38816e-15 -1.75
vt 1.2374 -1.23741
vt 1.75 -4.44089e-16
vt -1.66533e-16 1.25
vt -1.23738 1.23738
vt -1.25 8.37004e-17
vt -1.75 2.22045e-16
vt -0.883844 -0.88385
vt -1.23738 -1.23738
vt -1.06599e-06 -1.24999
vt -1.66533e-16 -1.75
vt 0.883843 -0.883843
vt 1.2374 -1.23741
vt 1.24999 1.06599e-06
vt 1.75 -4.44089e-16
vt 0.88385 0.883844
vt 2.22045e-16 1.75
vt -0.883869 0.883869
vt 1.2374 1.23741
f -97/-97/-97 -96/-96/-96 -115/-115/-115
f -111/-111/-111 -117/-117/-117 -116/-116/-116
f -108/-108/-108 -115/-115/-115 -114/-114/-114
f -115/-115/-115 -113/-113/-113 -112/-112/-112
f -106/-106/-106 -111/-111/-111 -110/-110/-110
f -117/-117/-117 -95/-95/-95 -109/-109/-109
f -97/-97/-97 -108/-108/-108 -99/-99/-99
f -113/-113/-113 -96/-96/-96 -107/-107/-107
f -94/-94/-94 -106/-106/-106 -104/-104/-104
f -94/-94/-94 -95/-95/-95 -111/-111/-111
f -93/-93/-93 -109/-109/-109 -92/-92/-92
f -93/-93/-93 -102/-102/-102 -91/-91/-91
f -90/-90/-90 -105/-105/-105 -91/-91/-91
f -90/-90/-90 -100/-100/-100 -89/-89/-89
f -88/-88/-88 -103/-103/-103 -89/-89/-89
f -88/-88/-88 -98/-98/-98 -87/-87/-87
f -86/-86/-86 -101/-101/-101 -87/-87/-87
f -86/-86/-86 -107/-107/-107 -85/-85/-85
f -92/-92/-92 -94/-94/-94 -104/-104/-104
f -95/-95/-95 -92/-92/-92 -109/-109/-109
f -95/-95/-95 -94/-94/-94 -92/-92/-92
f -95/-95/-95 -117/-117/-117 -111/-111/-111
f -96/-96/-96 -85/-85/-85 -107/-107/-107
f -85/-85/-85 -97/-97/-97 -99/-99/-99
f -96/-96/-96 -97/-97/-97 -85/-85/-85
f -108/-108/-108 -97/-97/-97 -115/-115/-115
f -96/-96/-96 -113/-113/-113 -115/-115/-115
f -106/-106/-106 -94/-94/-94 -111/-111/-111
f -93/-93/-93 -92/-92/-92 -104/-104/-104
f -109/-109/-109 -93/-93/-93 -105/-105/-105
f -93/-93/-93 -91/-91/-91 -105/-105/-105
f -102/-102/-102 -93/-93/-93 -104/-104/-104
f -90/-90/-90 -91/-91/-91 -102/-102/-102
f -105/-105/-105 -90/-90/-90 -103/-103/-103
f -90/-90/-90 -89/-89/-89 -103/-103/-103
f -100/-100/-100 -90/-90/-90 -102/-102/-102
f -88/-88/-88 -89/-89/-89 -100/-100/-100
f -103/-103/-103 -88/-88/-88 -101/-101/-101
f -88/-88/-88 -87/-87/-87 -101/-101/-101
f -98/-98/-98 -88/-88/-88 -100/-100/-100
f -86/-86/-86 -87/-87/-87 -98/-98/-98
f -101/-101/-101 -86/-86/-86 -99/-99/-99
f -86/-86/-86 -85/-85/-85 -99/-99/-99
f -107/-107/-107 -86/-86/-86 -98/-98/-98
f -67/-67/-67 -84/-84/-84 -83/-83/-83
f -80/-80/-80 -82/-82/-82 -81/-81/-81
f -78/-78/-78 -82/-82/-82 -80/-80/-80
f -78/-78/-78 -79/-79/-79 -82/-82/-82
f -76/-76/-76 -79/-79/-79 -78/-78/-78
f -76/-76/-76 -77/-77/-77 -79/-79/-79
f -75/-75/-75 -77/-77/-77 -76/-76/-76
f -73/-73/-73 -77/-77/-77 -75/-75/-75
f -73/-73/-73 -74/-74/-74 -77/-77/-77
f -71/-71/-71 -74/-74/-74 -73/-73/-73
f -71/-71/-71 -72/-72/-72 -74/-74/-74
f -69/-69/-69 -72/-72/-72 -71/-71/-71
f -69/-69/-69 -70/-70/-70 -72/-72/-72
f -84/-84/-84 -70/-70/-70 -69/-69/-69
f -84/-84/-84 -68/-68/-68 -70/-70/-70
f -84/-84/-84 -67/-67/-67 -68/-68/-68
f -64/-64/-64 -66/-66/-66 -65/-65/-65
f -62/-62/-62 -64/-64/-64 -63/-63/-63
f -61/-61/-61 -64/-64/-64 -62/-62/-62
f -60/-60/-60 -64/-64/-64 -61/-61/-61
f -59/-59/-59 -64/-64/-64 -60/-60/-60
f -66/-66/-66 -64/-64/-64 -59/-59/-59
f -58/-58/-58 -47/-47/-47 -44/-44/-44
f -45/-45/-45 -57/-57/-57 -56/-56/-56
f -56/-56/-56 -57/-57/-57 -54/-54/-54
f -57/-57/-57 -55/-55/-55 -54/-54/-54
f -54/-54/-54 -55/-55/-55 -52/-52/-52
f -55/-55/-55 -53/-53/-53 -52/-52/-52
f -52/-52/-52 -53/-53/-53 -50/-50/-50
f -53/-53/-53 -51/-51/-51 -50/-50/-50
f -50/-50/-50 -51/-51/-51 -48/-48/-48
f -51/-51/-51 -49/-49/-49 -48/-48/-48
f -48/-48/-48 -49/-49/-49 -46/-46/-46
f -49/-49/-49 -47/-47/-47 -46/-46/-46
f -46/-46/-46 -47/-47/-47 -58/-58/-58
f -45/-45/-45 -56/-56/-56 -43/-43/-43
f -56/-56/-56 -44/-44/-44 -43/-43/-43
f -43/-43/-43 -44/-44/-44 -47/-47/-47
f -25/-25/-25 -42/-42/-42 -39/-39/-39
f -25/-25/-25 -41/-41/-41 -40/-40/-40
f -25/-25/-25 -39/-39/-39 -41/-41/-41
f -36/-36/-36 -38/-38/-38 -37/-37/-37
f -34/-34/-34 -38/-38/-38 -36/-36/-36
f -34/-34/-34 -35/-35/-35 -38/-38/-38
f -32/-32/-32 -35/-35/-35 -34/-34/-34
f -32/-32/-32 -33/-33/-33 -35/-35/-35
f -31/-31/-31 -33/-33/-33 -32/-32/-32
f -29/-29/-29 -33/-33/-33 -31/-31/-31
f -29/-29/-29 -30/-30/-30 -33/-33/-33
f -26/-26/-26 -30/-30/-30 -29/-29/-29
f -26/-26/-26 -28/-28/-28 -30/-30/-30
f -26/-26/-26 -27/-27/-27 -28/-28/-28
f -42/-42/-42 -27/-27/-27 -26/-26/-26
f -42/-42/-42 -25/-25/-25 -27/-27/-27
f -22/-22/-22 -24/-24/-24 -23/-23/-23
f -20/-20/-20 -22/-22/-22 -21/-21/-21
f -19/-19/-19 -22/-22/-22 -20/-20/-20
f -18/-18/-18 -22/-22/-22 -19/-19/-19
f -17/-17/-17 -22/-22/-22 -18/-18/-18
f -24/-24/-24 -22/-22/-22 -17/-17/-17
f -4/-4/-4 -16/-16/-16 -1/-1/-1
f -15/-15/-15 -2/-2/-2 -13/-13/-13
f -2/-2/-2 -14/-14/-14 -13/-13/-13
f -13/-13/-13 -14/-14/-14 -11/-11/-11
f -14/-14/-14 -12/-12/-12 -11/-11/-11
f -11/-11/-11 -12/-12/-12 -9/-9/-9
f -12/-12/-12 -10/-10/-10 -9/-9/-9
f -9/-9/-9 -10/-10/-10 -7/-7/-7
f -10/-10/-10 -8/-8/-8 -7/-7/-7
f -7/-7/-7 -8/-8/-8 -5/-5/-5
f -8/-8/-8 -6/-6/-6 -5/-5/-5
f -5/-5/-5 -6/-6/-6 -1/-1/-1
f -6/-6/-6 -4/-4/-4 -1/-1/-1
f -15/-15/-15 -3/-3/-3 -2/-2/-2
f -2/-2/-2 -3/-3/-3 -16/-16/-16
f -3/-3/-3 -1/-1/-1 -16/-16/-16

