# OBJ Export by Luxion KeyShot

mtllib Gripper_2.mtl

g Salva i corpi1[1]
usemtl Paint Textured Black #1
v -105.003 375.5 -238.251
v -93.003 386.5 -238.251
v -93.003 375.5 -238.251
v -105.003 386.5 -238.251
v -105.003 415.5 -248.251
v -93.003 415.5 -238.251
v -105.003 415.5 -238.251
v -93.003 415.5 -248.251
v -93.003 389.357 -248.251
v -93.003 415.5 -248.251
v -105.003 415.5 -248.251
v -105.003 389.357 -248.251
v -105.003 375.5 -240.251
v -93.003 389.357 -248.251
v -105.003 389.357 -248.251
v -93.003 375.5 -240.251
v -105.003 375.5 -238.251
v -93.003 375.5 -240.251
v -105.003 375.5 -240.251
v -93.003 375.5 -238.251
v -105.003 401.5 -238.251
v -105.003 415.5 -238.251
v -93.003 415.5 -238.251
v -93.003 401.5 -238.251
v -93.003 401.5 -240.251
v -93.003 401.5 -238.251
v -93.003 415.5 -238.251
v -93.003 375.5 -240.251
v -93.003 375.5 -238.251
v -93.003 386.5 -238.251
v -93.003 386.5 -240.251
v -93.003 389.357 -248.251
v -93.003 415.5 -248.251
v -105.003 401.5 -240.251
v -105.003 415.5 -238.251
v -105.003 401.5 -238.251
v -105.003 375.5 -240.251
v -105.003 386.5 -238.251
v -105.003 375.5 -238.251
v -105.003 386.5 -240.251
v -105.003 389.357 -248.251
v -105.003 415.5 -248.251
v -105.003 386.5 -240.251
v -93.003 386.5 -238.251
v -105.003 386.5 -238.251
v -93.003 386.5 -240.251
v -93.003 401.5 -240.251
v -93.003 386.5 -240.251
v -105.003 386.5 -240.251
v -105.003 401.5 -240.251
v -105.003 401.5 -238.251
v -93.003 401.5 -240.251
v -105.003 401.5 -240.251
v -93.003 401.5 -238.251
vn 0 0 1
vn 0 0 1
vn 0 0 1
vn 0 0 1
vn -0 1 -0
vn -0 1 -0
vn -0 1 -0
vn -0 1 -0
vn 0 0 -1
vn 0 0 -1
vn 0 0 -1
vn 0 0 -1
vn 0 -0.5 -0.866025
vn 0 -0.5 -0.866025
vn 0 -0.5 -0.866025
vn 0 -0.5 -0.866025
vn 0 -1 0
vn 0 -1 0
vn 0 -1 0
vn 0 -1 0
vn 0 0 1
vn 0 0 1
vn 0 0 1
vn 0 0 1
vn 1 0 0
vn 1 0 0
vn 1 0 0
vn 1 0 0
vn 1 0 0
vn 1 0 0
vn 1 0 0
vn 1 0 0
vn 1 0 0
vn -1 0 0
vn -1 0 0
vn -1 0 0
vn -1 0 0
vn -1 0 0
vn -1 0 0
vn -1 0 0
vn -1 0 0
vn -1 0 0
vn -0 1 -0
vn -0 1 -0
vn -0 1 -0
vn -0 1 -0
vn 0 0 1
vn 0 0 1
vn 0 0 1
vn 0 0 1
vn 0 -1 0
vn 0 -1 0
vn 0 -1 0
vn 0 -1 0
vt -12 1.63913e-07
vt 1.78814e-07 -11
vt 4.20213e-07 1.63913e-07
vt -12 -11
vt -10 12
vt 1.49012e-07 0
vt 3.50177e-07 12
vt -10 0
vt 3.91155e-09 26.1436
vt 0 0
vt 12 0
vt 12 26.1436
vt -16 12
vt 2.38419e-07 0
vt 5.60284e-07 12
vt -16 0
vt -2 12
vt 2.98023e-08 0
vt 7.00355e-08 12
vt -2 0
vt -12 -26
vt -12 -40
vt 1.78814e-07 -40
vt 4.20213e-07 -26
vt 200.25 -59.5
vt 202.25 -59.5
vt 202.25 -73.5
vt 200.25 -33.5
vt 202.25 -33.5
vt 202.25 -44.5
vt 200.25 -44.5
vt 192.25 -47.3564
vt 192.25 -73.5
vt 200.25 -59.5
vt 202.25 -73.5
vt 202.25 -59.5
vt 200.25 -33.5
vt 202.25 -44.5
vt 202.25 -33.5
vt 200.25 -44.5
vt 192.25 -47.3564
vt 192.25 -73.5
vt -2 -195
vt 2.98023e-08 -207
vt 7.00355e-08 -195
vt -2 -207
vt 207 0
vt 207 15
vt 195 15
vt 195 0
vt 6.51926e-10 -195
vt 2 -207
vt 2 -195
vt 0 -207
f -54/-54/-54 -52/-52/-52 -53/-53/-53
f -53/-53/-53 -51/-51/-51 -54/-54/-54
f -50/-50/-50 -48/-48/-48 -49/-49/-49
f -49/-49/-49 -47/-47/-47 -50/-50/-50
f -46/-46/-46 -44/-44/-44 -45/-45/-45
f -46/-46/-46 -43/-43/-43 -44/-44/-44
f -42/-42/-42 -40/-40/-40 -41/-41/-41
f -41/-41/-41 -39/-39/-39 -42/-42/-42
f -38/-38/-38 -36/-36/-36 -37/-37/-37
f -37/-37/-37 -35/-35/-35 -38/-38/-38
f -34/-34/-34 -32/-32/-32 -33/-33/-33
f -34/-34/-34 -31/-31/-31 -32/-32/-32
f -30/-30/-30 -28/-28/-28 -29/-29/-29
f -27/-27/-27 -25/-25/-25 -26/-26/-26
f -25/-25/-25 -27/-27/-27 -24/-24/-24
f -23/-23/-23 -22/-22/-22 -30/-30/-30
f -27/-27/-27 -23/-23/-23 -24/-24/-24
f -28/-28/-28 -30/-30/-30 -22/-22/-22
f -23/-23/-23 -30/-30/-30 -24/-24/-24
f -21/-21/-21 -19/-19/-19 -20/-20/-20
f -18/-18/-18 -16/-16/-16 -17/-17/-17
f -17/-17/-17 -15/-15/-15 -18/-18/-18
f -14/-14/-14 -21/-21/-21 -13/-13/-13
f -18/-18/-18 -15/-15/-15 -14/-14/-14
f -20/-20/-20 -13/-13/-13 -21/-21/-21
f -14/-14/-14 -15/-15/-15 -21/-21/-21
f -12/-12/-12 -10/-10/-10 -11/-11/-11
f -11/-11/-11 -9/-9/-9 -12/-12/-12
f -8/-8/-8 -6/-6/-6 -7/-7/-7
f -8/-8/-8 -5/-5/-5 -6/-6/-6
f -4/-4/-4 -2/-2/-2 -3/-3/-3
f -3/-3/-3 -1/-1/-1 -4/-4/-4

