# 
# Wavefront OBJ file
# Converted by the DEEP Exploration Deep Exploration 5 5.0.2.1477 Release
# Right Hemisphere, LTD
# http://www.righthemisphere.com/
# 
mtllib Box.mtl
# object Collection_Box_Collection_Box
g Collection_Box_Collection_Box
v 150.00000 0.00000 -200.00000
v 150.00000 250.00000 -200.00000
v -150.00000 250.00000 -200.00000
v -150.00000 0.00000 -200.00000
v -150.00000 0.00000 -200.00000
v -150.00000 250.00000 -200.00000
v -150.00000 250.00000 200.00000
v -150.00000 0.00000 200.00000
v -150.00000 0.00000 200.00000
v -150.00000 250.00000 200.00000
v 150.00000 250.00000 200.00000
v 150.00000 0.00000 200.00000
v 150.00000 0.00000 200.00000
v 150.00000 250.00000 200.00000
v 150.00000 250.00000 -200.00000
v 150.00000 0.00000 -200.00000
v 145.00000 250.00000 195.00000
v 145.00000 250.00000 -195.00000
v 150.00000 250.00000 200.00000
v 150.00000 250.00000 -200.00000
v -150.00000 250.00000 -200.00000
v -145.00000 250.00000 -195.00000
v -145.00000 250.00000 195.00000
v -150.00000 250.00000 200.00000
v -150.00000 0.00000 -200.00000
v -150.00000 0.00000 200.00000
v 150.00000 0.00000 200.00000
v 150.00000 0.00000 -200.00000
v -145.00000 250.00000 -195.00000
v 145.00000 250.00000 -195.00000
v 145.00000 5.00000 -195.00000
v -145.00000 5.00000 -195.00000
v -145.00000 250.00000 195.00000
v -145.00000 250.00000 -195.00000
v -145.00000 5.00000 -195.00000
v -145.00000 5.00000 195.00000
v 145.00000 250.00000 195.00000
v -145.00000 250.00000 195.00000
v -145.00000 5.00000 195.00000
v 145.00000 5.00000 195.00000
v 145.00000 250.00000 -195.00000
v 145.00000 250.00000 195.00000
v 145.00000 5.00000 195.00000
v 145.00000 5.00000 -195.00000
v 145.00000 5.00000 195.00000
v -145.00000 5.00000 195.00000
v -145.00000 5.00000 -195.00000
v 145.00000 5.00000 -195.00000
# 48 verticies
vt 300.00000 -250.00000
vt 0.00000 0.00000
vt 300.00000 0.00000
vt 0.00000 -250.00000
vt 400.00000 -250.00000
vt 0.00000 0.00000
vt 400.00000 0.00000
vt 0.00000 -250.00000
vt -300.00000 0.00000
vt 0.00001 0.00000
vt -300.00000 -250.00000
vt 0.00001 -250.00000
vt -400.00000 0.00000
vt 0.00001 0.00000
vt -400.00000 -250.00000
vt -145.00000 195.00000
vt -150.00000 200.00000
vt -145.00000 -195.00000
vt -150.00000 -200.00000
vt 150.00000 -200.00000
vt 145.00000 -195.00000
vt 145.00000 195.00000
vt 150.00000 200.00000
vt 5.00000 0.00000
vt 295.00000 -245.00000
vt 295.00000 0.00000
vt 5.00000 -245.00000
vt 395.00000 -245.00000
vt 395.00000 0.00000
vt -295.00000 0.00000
vt -5.00000 -245.00000
vt -4.99999 0.00000
vt -295.00000 -245.00000
vt -395.00000 0.00000
vt -4.99999 -245.00000
vt -395.00000 -245.00000
# 36 texture verticies
vn -0.00000 0.00000 -1.00000
vn -1.00000 0.00000 0.00000
vn 0.00000 0.00000 1.00000
vn 1.00000 0.00000 -0.00000
vn 0.00000 1.00000 0.00000
vn 0.00000 -1.00000 0.00000
vn 0.00000 0.00000 1.00000
# 7 normals
usemtl Paint_Matte_Orange
f  1/1/1 3/2/1 2/3/1
f  1/1/1 4/4/1 3/2/1
f  5/5/2 7/6/2 6/7/2
f  5/5/2 8/4/2 7/6/2
f  9/8/3 11/9/3 10/10/3
f  9/8/3 12/11/3 11/9/3
f  13/12/4 15/13/4 14/14/4
f  13/12/4 16/15/4 15/13/4
f  17/16/5 19/17/5 18/18/5
f  18/18/5 19/17/5 20/19/5
f  21/20/5 22/21/5 18/18/5
f  23/22/5 21/20/5 24/23/5
f  21/20/5 18/18/5 20/19/5
f  24/23/5 19/17/5 23/22/5
f  19/17/5 17/16/5 23/22/5
f  21/20/5 23/22/5 22/21/5
f  25/20/6 27/17/6 26/23/6
f  25/20/6 28/19/6 27/17/6
f  29/24/7 31/25/7 30/26/7
f  31/25/7 29/24/7 32/27/7
f  33/24/4 35/28/4 34/29/4
f  35/28/4 33/24/4 36/27/4
f  37/30/1 39/31/1 38/32/1
f  39/31/1 37/30/1 40/33/1
f  41/34/2 43/35/2 42/32/2
f  43/35/2 41/34/2 44/36/2
f  45/16/5 47/21/5 46/22/5
f  47/21/5 45/16/5 48/18/5
