# Blender v2.79 (sub 0) OBJ File: ''
# www.blender.org
o Plane_Grid
v -1.000000 0.000000 1.000000
v -0.777778 0.000000 1.000000
v -0.555556 0.000000 1.000000
v -0.333333 0.000000 1.000000
v -0.111111 0.000000 1.000000
v 0.111111 0.000000 1.000000
v 0.333333 0.000000 1.000000
v 0.555556 0.000000 1.000000
v 0.777778 0.000000 1.000000
v 1.000000 0.000000 1.000000
v -1.000000 0.000000 0.777778
v -0.777778 0.000000 0.777778
v -0.555556 0.000000 0.777778
v -0.333333 0.000000 0.777778
v -0.111111 0.000000 0.777778
v 0.111111 0.000000 0.777778
v 0.333333 0.000000 0.777778
v 0.555556 0.000000 0.777778
v 0.777778 0.000000 0.777778
v 1.000000 0.000000 0.777778
v -1.000000 0.000000 0.555556
v -0.777778 0.000000 0.555556
v -0.555556 0.000000 0.555556
v -0.333333 0.000000 0.555556
v -0.111111 0.000000 0.555556
v 0.111111 0.000000 0.555556
v 0.333333 0.000000 0.555556
v 0.555556 0.000000 0.555556
v 0.777778 0.000000 0.555556
v 1.000000 0.000000 0.555556
v -1.000000 0.000000 0.333333
v -0.777778 0.000000 0.333333
v -0.555556 0.000000 0.333333
v -0.333333 0.000000 0.333333
v -0.111111 0.000000 0.333333
v 0.111111 0.000000 0.333333
v 0.333333 0.000000 0.333333
v 0.555556 0.000000 0.333333
v 0.777778 0.000000 0.333333
v 1.000000 0.000000 0.333333
v -1.000000 0.000000 0.111111
v -0.777778 0.000000 0.111111
v -0.555556 0.000000 0.111111
v -0.333333 0.000000 0.111111
v -0.111111 0.000000 0.111111
v 0.111111 0.000000 0.111111
v 0.333333 0.000000 0.111111
v 0.555556 0.000000 0.111111
v 0.777778 0.000000 0.111111
v 1.000000 0.000000 0.111111
v -1.000000 0.000000 -0.111111
v -0.777778 0.000000 -0.111111
v -0.555556 0.000000 -0.111111
v -0.333333 0.000000 -0.111111
v -0.111111 0.000000 -0.111111
v 0.111111 0.000000 -0.111111
v 0.333333 0.000000 -0.111111
v 0.555556 0.000000 -0.111111
v 0.777778 0.000000 -0.111111
v 1.000000 0.000000 -0.111111
v -1.000000 0.000000 -0.333333
v -0.777778 0.000000 -0.333333
v -0.555556 0.000000 -0.333333
v -0.333333 0.000000 -0.333333
v -0.111111 0.000000 -0.333333
v 0.111111 0.000000 -0.333333
v 0.333333 0.000000 -0.333333
v 0.555556 0.000000 -0.333333
v 0.777778 0.000000 -0.333333
v 1.000000 0.000000 -0.333333
v -1.000000 0.000000 -0.555556
v -0.777778 0.000000 -0.555556
v -0.555556 0.000000 -0.555556
v -0.333333 0.000000 -0.555556
v -0.111111 0.000000 -0.555556
v 0.111111 0.000000 -0.555556
v 0.333333 0.000000 -0.555556
v 0.555556 0.000000 -0.555556
v 0.777778 0.000000 -0.555556
v 1.000000 0.000000 -0.555556
v -1.000000 0.000000 -0.777778
v -0.777778 0.000000 -0.777778
v -0.555556 0.000000 -0.777778
v -0.333333 0.000000 -0.777778
v -0.111111 0.000000 -0.777778
v 0.111111 0.000000 -0.777778
v 0.333333 0.000000 -0.777778
v 0.555556 0.000000 -0.777778
v 0.777778 0.000000 -0.777778
v 1.000000 0.000000 -0.777778
v -1.000000 0.000000 -1.000000
v -0.777778 0.000000 -1.000000
v -0.555556 0.000000 -1.000000
v -0.333333 0.000000 -1.000000
v -0.111111 0.000000 -1.000000
v 0.111111 0.000000 -1.000000
v 0.333333 0.000000 -1.000000
v 0.555556 0.000000 -1.000000
v 0.777778 0.000000 -1.000000
v 1.000000 0.000000 -1.000000
v -1.000000 0.000000 1.000000
v -0.777778 0.000000 1.000000
v -0.555556 0.000000 1.000000
v -0.333333 0.000000 1.000000
v -0.111111 0.000000 1.000000
v 0.111111 0.000000 1.000000
v 0.333333 0.000000 1.000000
v 0.555556 0.000000 1.000000
v 0.777778 0.000000 1.000000
v 1.000000 0.000000 1.000000
v -1.000000 0.000000 0.777778
v -0.777778 0.000000 0.777778
v -0.555556 0.000000 0.777778
v -0.333333 0.000000 0.777778
v -0.111111 0.000000 0.777778
v 0.111111 0.000000 0.777778
v 0.333333 0.000000 0.777778
v 0.555556 0.000000 0.777778
v 0.777778 0.000000 0.777778
v 1.000000 0.000000 0.777778
v -1.000000 0.000000 0.555556
v -0.777778 0.000000 0.555556
v -0.555556 0.000000 0.555556
v -0.333333 0.000000 0.555556
v -0.111111 0.000000 0.555556
v 0.111111 0.000000 0.555556
v 0.333333 0.000000 0.555556
v 0.555556 0.000000 0.555556
v 0.777778 0.000000 0.555556
v 1.000000 0.000000 0.555556
v -1.000000 0.000000 0.333333
v -0.777778 0.000000 0.333333
v -0.555556 0.000000 0.333333
v -0.333333 0.000000 0.333333
v -0.111111 0.000000 0.333333
v 0.111111 0.000000 0.333333
v 0.333333 0.000000 0.333333
v 0.555556 0.000000 0.333333
v 0.777778 0.000000 0.333333
v 1.000000 0.000000 0.333333
v -1.000000 0.000000 0.111111
v -0.777778 0.000000 0.111111
v -0.555556 0.000000 0.111111
v -0.333333 0.000000 0.111111
v -0.111111 0.000000 0.111111
v 0.111111 0.000000 0.111111
v 0.333333 0.000000 0.111111
v 0.555556 0.000000 0.111111
v 0.777778 0.000000 0.111111
v 1.000000 0.000000 0.111111
v -1.000000 0.000000 -0.111111
v -0.777778 0.000000 -0.111111
v -0.555556 0.000000 -0.111111
v -0.333333 0.000000 -0.111111
v -0.111111 0.000000 -0.111111
v 0.111111 0.000000 -0.111111
v 0.333333 0.000000 -0.111111
v 0.555556 0.000000 -0.111111
v 0.777778 0.000000 -0.111111
v 1.000000 0.000000 -0.111111
v -1.000000 0.000000 -0.333333
v -0.777778 0.000000 -0.333333
v -0.555556 0.000000 -0.333333
v -0.333333 0.000000 -0.333333
v -0.111111 0.000000 -0.333333
v 0.111111 0.000000 -0.333333
v 0.333333 0.000000 -0.333333
v 0.555556 0.000000 -0.333333
v 0.777778 0.000000 -0.333333
v 1.000000 0.000000 -0.333333
v -1.000000 0.000000 -0.555556
v -0.777778 0.000000 -0.555556
v -0.555556 0.000000 -0.555556
v -0.333333 0.000000 -0.555556
v -0.111111 0.000000 -0.555556
v 0.111111 0.000000 -0.555556
v 0.333333 0.000000 -0.555556
v 0.555556 0.000000 -0.555556
v 0.777778 0.000000 -0.555556
v 1.000000 0.000000 -0.555556
v -1.000000 0.000000 -0.777778
v -0.777778 0.000000 -0.777778
v -0.555556 0.000000 -0.777778
v -0.333333 0.000000 -0.777778
v -0.111111 0.000000 -0.777778
v 0.111111 0.000000 -0.777778
v 0.333333 0.000000 -0.777778
v 0.555556 0.000000 -0.777778
v 0.777778 0.000000 -0.777778
v 1.000000 0.000000 -0.777778
v -1.000000 0.000000 -1.000000
v -0.777778 0.000000 -1.000000
v -0.555556 0.000000 -1.000000
v -0.333333 0.000000 -1.000000
v -0.111111 0.000000 -1.000000
v 0.111111 0.000000 -1.000000
v 0.333333 0.000000 -1.000000
v 0.555556 0.000000 -1.000000
v 0.777778 0.000000 -1.000000
v 1.000000 0.000000 -1.000000
vn 0.0000 -1.0000 0.0000
vn 0.0000 1.0000 0.0000
vn 0.0000 0.0000 1.0000
s off
f 11//1 2//1 1//1
f 12//1 3//1 2//1
f 13//1 4//1 3//1
f 14//1 5//1 4//1
f 15//1 6//1 5//1
f 16//1 7//1 6//1
f 17//1 8//1 7//1
f 18//1 9//1 8//1
f 19//1 10//1 9//1
f 21//1 12//1 11//1
f 22//1 13//1 12//1
f 23//1 14//1 13//1
f 24//1 15//1 14//1
f 25//1 16//1 15//1
f 26//1 17//1 16//1
f 27//1 18//1 17//1
f 28//1 19//1 18//1
f 29//1 20//1 19//1
f 31//1 22//1 21//1
f 32//1 23//1 22//1
f 33//1 24//1 23//1
f 34//1 25//1 24//1
f 35//1 26//1 25//1
f 36//1 27//1 26//1
f 37//1 28//1 27//1
f 38//1 29//1 28//1
f 39//1 30//1 29//1
f 41//1 32//1 31//1
f 42//1 33//1 32//1
f 43//1 34//1 33//1
f 44//1 35//1 34//1
f 45//1 36//1 35//1
f 46//1 37//1 36//1
f 47//1 38//1 37//1
f 48//1 39//1 38//1
f 49//1 40//1 39//1
f 51//1 42//1 41//1
f 52//1 43//1 42//1
f 53//1 44//1 43//1
f 54//1 45//1 44//1
f 55//1 46//1 45//1
f 56//1 47//1 46//1
f 57//1 48//1 47//1
f 58//1 49//1 48//1
f 59//1 50//1 49//1
f 61//1 52//1 51//1
f 62//1 53//1 52//1
f 63//1 54//1 53//1
f 64//1 55//1 54//1
f 65//1 56//1 55//1
f 66//1 57//1 56//1
f 67//1 58//1 57//1
f 68//1 59//1 58//1
f 69//1 60//1 59//1
f 71//1 62//1 61//1
f 72//1 63//1 62//1
f 73//1 64//1 63//1
f 74//1 65//1 64//1
f 75//1 66//1 65//1
f 76//1 67//1 66//1
f 77//1 68//1 67//1
f 78//1 69//1 68//1
f 79//1 70//1 69//1
f 81//1 72//1 71//1
f 82//1 73//1 72//1
f 83//1 74//1 73//1
f 84//1 75//1 74//1
f 85//1 76//1 75//1
f 86//1 77//1 76//1
f 87//1 78//1 77//1
f 88//1 79//1 78//1
f 89//1 80//1 79//1
f 91//1 82//1 81//1
f 92//1 83//1 82//1
f 93//1 84//1 83//1
f 94//1 85//1 84//1
f 95//1 86//1 85//1
f 96//1 87//1 86//1
f 97//1 88//1 87//1
f 98//1 89//1 88//1
f 99//1 90//1 89//1
f 102//2 111//2 101//2
f 103//2 112//2 102//2
f 104//2 113//2 103//2
f 105//2 114//2 104//2
f 106//2 115//2 105//2
f 107//2 116//2 106//2
f 108//2 117//2 107//2
f 109//2 118//2 108//2
f 110//2 119//2 109//2
f 112//2 121//2 111//2
f 113//2 122//2 112//2
f 114//2 123//2 113//2
f 115//2 124//2 114//2
f 116//2 125//2 115//2
f 117//2 126//2 116//2
f 118//2 127//2 117//2
f 119//2 128//2 118//2
f 120//2 129//2 119//2
f 122//2 131//2 121//2
f 123//2 132//2 122//2
f 124//2 133//2 123//2
f 125//2 134//2 124//2
f 126//2 135//2 125//2
f 127//2 136//2 126//2
f 128//2 137//2 127//2
f 129//2 138//2 128//2
f 130//2 139//2 129//2
f 132//2 141//2 131//2
f 133//2 142//2 132//2
f 134//2 143//2 133//2
f 135//2 144//2 134//2
f 136//2 145//2 135//2
f 137//2 146//2 136//2
f 138//2 147//2 137//2
f 139//2 148//2 138//2
f 140//2 149//2 139//2
f 142//2 151//2 141//2
f 143//2 152//2 142//2
f 144//2 153//2 143//2
f 145//2 154//2 144//2
f 146//2 155//2 145//2
f 147//2 156//2 146//2
f 148//2 157//2 147//2
f 149//2 158//2 148//2
f 150//2 159//2 149//2
f 152//2 161//2 151//2
f 153//2 162//2 152//2
f 154//2 163//2 153//2
f 155//2 164//2 154//2
f 156//2 165//2 155//2
f 157//2 166//2 156//2
f 158//2 167//2 157//2
f 159//2 168//2 158//2
f 160//2 169//2 159//2
f 162//2 171//2 161//2
f 163//2 172//2 162//2
f 164//2 173//2 163//2
f 165//2 174//2 164//2
f 166//2 175//2 165//2
f 167//2 176//2 166//2
f 168//2 177//2 167//2
f 169//2 178//2 168//2
f 170//2 179//2 169//2
f 172//2 181//2 171//2
f 173//2 182//2 172//2
f 174//2 183//2 173//2
f 175//2 184//2 174//2
f 176//2 185//2 175//2
f 177//2 186//2 176//2
f 178//2 187//2 177//2
f 179//2 188//2 178//2
f 180//2 189//2 179//2
f 182//2 191//2 181//2
f 183//2 192//2 182//2
f 184//2 193//2 183//2
f 185//2 194//2 184//2
f 186//2 195//2 185//2
f 187//2 196//2 186//2
f 188//2 197//2 187//2
f 189//2 198//2 188//2
f 190//2 199//2 189//2
f 94//3 193//3 194//3
f 31//3 121//3 131//3
f 3//3 104//3 103//3
f 81//3 171//3 181//3
f 95//3 194//3 195//3
f 50//3 160//3 150//3
f 8//3 109//3 108//3
f 4//3 105//3 104//3
f 96//3 195//3 196//3
f 61//3 151//3 161//3
f 30//3 140//3 130//3
f 80//3 190//3 180//3
f 9//3 110//3 109//3
f 97//3 196//3 197//3
f 41//3 131//3 141//3
f 10//3 120//3 110//3
f 5//3 106//3 105//3
f 11//3 101//3 111//3
f 91//3 181//3 191//3
f 60//3 170//3 160//3
f 98//3 197//3 198//3
f 1//3 102//3 101//3
f 21//3 111//3 121//3
f 92//3 191//3 192//3
f 71//3 161//3 171//3
f 6//3 107//3 106//3
f 40//3 150//3 140//3
f 99//3 198//3 199//3
f 90//3 200//3 190//3
f 2//3 103//3 102//3
f 93//3 192//3 193//3
f 51//3 141//3 151//3
f 100//3 199//3 200//3
f 20//3 130//3 120//3
f 7//3 108//3 107//3
f 70//3 180//3 170//3
f 11//1 12//1 2//1
f 12//1 13//1 3//1
f 13//1 14//1 4//1
f 14//1 15//1 5//1
f 15//1 16//1 6//1
f 16//1 17//1 7//1
f 17//1 18//1 8//1
f 18//1 19//1 9//1
f 19//1 20//1 10//1
f 21//1 22//1 12//1
f 22//1 23//1 13//1
f 23//1 24//1 14//1
f 24//1 25//1 15//1
f 25//1 26//1 16//1
f 26//1 27//1 17//1
f 27//1 28//1 18//1
f 28//1 29//1 19//1
f 29//1 30//1 20//1
f 31//1 32//1 22//1
f 32//1 33//1 23//1
f 33//1 34//1 24//1
f 34//1 35//1 25//1
f 35//1 36//1 26//1
f 36//1 37//1 27//1
f 37//1 38//1 28//1
f 38//1 39//1 29//1
f 39//1 40//1 30//1
f 41//1 42//1 32//1
f 42//1 43//1 33//1
f 43//1 44//1 34//1
f 44//1 45//1 35//1
f 45//1 46//1 36//1
f 46//1 47//1 37//1
f 47//1 48//1 38//1
f 48//1 49//1 39//1
f 49//1 50//1 40//1
f 51//1 52//1 42//1
f 52//1 53//1 43//1
f 53//1 54//1 44//1
f 54//1 55//1 45//1
f 55//1 56//1 46//1
f 56//1 57//1 47//1
f 57//1 58//1 48//1
f 58//1 59//1 49//1
f 59//1 60//1 50//1
f 61//1 62//1 52//1
f 62//1 63//1 53//1
f 63//1 64//1 54//1
f 64//1 65//1 55//1
f 65//1 66//1 56//1
f 66//1 67//1 57//1
f 67//1 68//1 58//1
f 68//1 69//1 59//1
f 69//1 70//1 60//1
f 71//1 72//1 62//1
f 72//1 73//1 63//1
f 73//1 74//1 64//1
f 74//1 75//1 65//1
f 75//1 76//1 66//1
f 76//1 77//1 67//1
f 77//1 78//1 68//1
f 78//1 79//1 69//1
f 79//1 80//1 70//1
f 81//1 82//1 72//1
f 82//1 83//1 73//1
f 83//1 84//1 74//1
f 84//1 85//1 75//1
f 85//1 86//1 76//1
f 86//1 87//1 77//1
f 87//1 88//1 78//1
f 88//1 89//1 79//1
f 89//1 90//1 80//1
f 91//1 92//1 82//1
f 92//1 93//1 83//1
f 93//1 94//1 84//1
f 94//1 95//1 85//1
f 95//1 96//1 86//1
f 96//1 97//1 87//1
f 97//1 98//1 88//1
f 98//1 99//1 89//1
f 99//1 100//1 90//1
f 102//2 112//2 111//2
f 103//2 113//2 112//2
f 104//2 114//2 113//2
f 105//2 115//2 114//2
f 106//2 116//2 115//2
f 107//2 117//2 116//2
f 108//2 118//2 117//2
f 109//2 119//2 118//2
f 110//2 120//2 119//2
f 112//2 122//2 121//2
f 113//2 123//2 122//2
f 114//2 124//2 123//2
f 115//2 125//2 124//2
f 116//2 126//2 125//2
f 117//2 127//2 126//2
f 118//2 128//2 127//2
f 119//2 129//2 128//2
f 120//2 130//2 129//2
f 122//2 132//2 131//2
f 123//2 133//2 132//2
f 124//2 134//2 133//2
f 125//2 135//2 134//2
f 126//2 136//2 135//2
f 127//2 137//2 136//2
f 128//2 138//2 137//2
f 129//2 139//2 138//2
f 130//2 140//2 139//2
f 132//2 142//2 141//2
f 133//2 143//2 142//2
f 134//2 144//2 143//2
f 135//2 145//2 144//2
f 136//2 146//2 145//2
f 137//2 147//2 146//2
f 138//2 148//2 147//2
f 139//2 149//2 148//2
f 140//2 150//2 149//2
f 142//2 152//2 151//2
f 143//2 153//2 152//2
f 144//2 154//2 153//2
f 145//2 155//2 154//2
f 146//2 156//2 155//2
f 147//2 157//2 156//2
f 148//2 158//2 157//2
f 149//2 159//2 158//2
f 150//2 160//2 159//2
f 152//2 162//2 161//2
f 153//2 163//2 162//2
f 154//2 164//2 163//2
f 155//2 165//2 164//2
f 156//2 166//2 165//2
f 157//2 167//2 166//2
f 158//2 168//2 167//2
f 159//2 169//2 168//2
f 160//2 170//2 169//2
f 162//2 172//2 171//2
f 163//2 173//2 172//2
f 164//2 174//2 173//2
f 165//2 175//2 174//2
f 166//2 176//2 175//2
f 167//2 177//2 176//2
f 168//2 178//2 177//2
f 169//2 179//2 178//2
f 170//2 180//2 179//2
f 172//2 182//2 181//2
f 173//2 183//2 182//2
f 174//2 184//2 183//2
f 175//2 185//2 184//2
f 176//2 186//2 185//2
f 177//2 187//2 186//2
f 178//2 188//2 187//2
f 179//2 189//2 188//2
f 180//2 190//2 189//2
f 182//2 192//2 191//2
f 183//2 193//2 192//2
f 184//2 194//2 193//2
f 185//2 195//2 194//2
f 186//2 196//2 195//2
f 187//2 197//2 196//2
f 188//2 198//2 197//2
f 189//2 199//2 198//2
f 190//2 200//2 199//2
f 94//3 93//3 193//3
f 31//3 21//3 121//3
f 3//3 4//3 104//3
f 81//3 71//3 171//3
f 95//3 94//3 194//3
f 50//3 60//3 160//3
f 8//3 9//3 109//3
f 4//3 5//3 105//3
f 96//3 95//3 195//3
f 61//3 51//3 151//3
f 30//3 40//3 140//3
f 80//3 90//3 190//3
f 9//3 10//3 110//3
f 97//3 96//3 196//3
f 41//3 31//3 131//3
f 10//3 20//3 120//3
f 5//3 6//3 106//3
f 11//3 1//3 101//3
f 91//3 81//3 181//3
f 60//3 70//3 170//3
f 98//3 97//3 197//3
f 1//3 2//3 102//3
f 21//3 11//3 111//3
f 92//3 91//3 191//3
f 71//3 61//3 161//3
f 6//3 7//3 107//3
f 40//3 50//3 150//3
f 99//3 98//3 198//3
f 90//3 100//3 200//3
f 2//3 3//3 103//3
f 93//3 92//3 192//3
f 51//3 41//3 141//3
f 100//3 99//3 199//3
f 20//3 30//3 130//3
f 7//3 8//3 108//3
f 70//3 80//3 180//3
