# 
# Wavefront OBJ file
# Converted by the DEEP Exploration Deep Exploration 5 5.0.2.1477 Release
# Right Hemisphere, LTD
# http://www.righthemisphere.com/
# 
mtllib RA_Gripper_2.mtl
# object Left_Gripper_2D_Pick_and_Place
g Left_Gripper_2D_Pick_and_Place
v 5.00000 14.00000 -7.50000
v 5.00000 0.00000 7.50000
v 5.00000 14.00000 7.50000
v 5.00000 0.00000 -7.50000
v 5.00000 40.00000 -7.50000
v 3.00000 29.00000 -7.50000
v 5.00000 29.00000 -7.50000
v -5.00000 40.00000 -7.50000
v 3.00000 0.00000 -7.50000
v 5.00000 0.00000 -7.50000
v 3.00000 14.00000 -7.50000
v -5.00000 8.00000 -7.50000
v 5.00000 14.00000 -7.50000
v 3.00000 14.00000 -7.50000
v 5.00000 14.00000 7.50000
v 3.00000 14.00000 7.50000
v 5.00000 14.00000 -7.50000
v 3.00000 14.00000 7.50000
v 3.00000 0.00000 7.50000
v -5.00000 8.00000 7.50000
v 3.00000 29.00000 7.50000
v 5.00000 40.00000 7.50000
v 5.00000 29.00000 7.50000
v -5.00000 40.00000 7.50000
v 5.00000 0.00000 7.50000
v 5.00000 14.00000 7.50000
v 3.00000 0.00000 7.50000
v 5.00000 0.00000 7.50000
v 5.00000 0.00000 -7.50000
v 3.00000 0.00000 -7.50000
v 3.00000 29.00000 -7.50000
v 3.00000 14.00000 7.50000
v 3.00000 29.00000 7.50000
v 3.00000 14.00000 -7.50000
v -5.00000 8.00000 -7.50000
v 3.00000 0.00000 7.50000
v 3.00000 0.00000 -7.50000
v -5.00000 8.00000 7.50000
v -5.00000 40.00000 7.50000
v -5.00000 8.00000 7.50000
v -5.00000 8.00000 -7.50000
v -5.00000 40.00000 -7.50000
v -5.00000 40.00000 -7.50000
v 5.00000 40.00000 7.50000
v -5.00000 40.00000 7.50000
v 5.00000 40.00000 -7.50000
v 5.00000 40.00000 -7.50000
v 5.00000 29.00000 -7.50000
v 5.00000 29.00000 7.50000
v 5.00000 40.00000 7.50000
v 3.00000 29.00000 7.50000
v 5.00000 29.00000 7.50000
v 5.00000 29.00000 -7.50000
v 3.00000 29.00000 -7.50000
# 54 verticies
vt -15.00000 -18.00000
vt 0.00000 -18.00000
vt 0.00000 -32.00000
vt -15.00000 -32.00000
vt 548.25000 205.14999
vt 548.25000 194.14999
vt 546.25000 194.14999
vt 538.25000 205.14999
vt 546.25000 165.14999
vt 546.25000 179.14999
vt 548.25000 165.14999
vt 538.25000 173.14999
vt 548.25000 179.14999
vt 29.70100 2.00000
vt 44.70100 2.00000
vt 44.70100 -0.00000
vt 29.70100 -0.00000
vt 0.00000 0.00000
vt 15.00000 -2.00000
vt 0.00000 -2.00000
vt 15.00000 0.00000
vt 29.70100 0.00000
vt 44.70100 0.00000
vt 44.70100 -15.00000
vt 29.70100 -15.00000
vt 0.00000 15.00000
vt 11.31370 15.00000
vt 11.31370 -0.00000
vt -0.00000 -0.00000
vt 0.00000 8.00000
vt 15.00000 -24.00000
vt 0.00000 -24.00000
vt 15.00000 8.00000
vt -15.00000 10.00000
vt 0.00000 10.00000
vt 0.00000 0.00000
vt -15.00000 0.00000
vt -15.00000 8.00000
vt 0.00000 -3.00000
vt -15.00000 -3.00000
vt 0.00000 8.00000
vt -44.70100 2.00000
vt -29.70100 -0.00000
vt -44.70100 -0.00000
vt -29.70100 2.00000
# 45 texture verticies
vn 1.00000 0.00000 -0.00000
vn -0.00000 0.00000 -1.00000
vn 0.00000 1.00000 0.00000
vn 0.00000 0.00000 1.00000
vn 0.00000 -1.00000 0.00000
vn -0.70711 -0.70711 0.00000
vn -1.00000 0.00000 0.00000
# 7 normals
usemtl Paint_Matte_Black_
f  1/1/1 3/2/1 2/3/1
f  2/3/1 4/4/1 1/1/1
f  5/5/2 7/6/2 6/7/2
f  6/7/2 8/8/2 5/5/2
f  9/9/2 11/10/2 10/11/2
f  6/7/2 12/12/2 8/8/2
f  13/13/2 10/11/2 11/10/2
f  6/7/2 11/10/2 12/12/2
f  12/12/2 11/10/2 9/9/2
f  14/14/3 16/15/3 15/16/3
f  15/16/3 17/17/3 14/14/3
f  18/10/4 20/12/4 19/9/4
f  21/7/4 23/6/4 22/5/4
f  21/7/4 24/8/4 20/12/4
f  22/5/4 24/8/4 21/7/4
f  21/7/4 20/12/4 18/10/4
f  19/9/4 25/11/4 18/10/4
f  18/10/4 25/11/4 26/13/4
f  27/18/5 29/19/5 28/20/5
f  27/18/5 30/21/5 29/19/5
f  31/22/1 33/23/1 32/24/1
f  32/24/1 34/25/1 31/22/1
f  35/26/6 37/27/6 36/28/6
f  36/28/6 38/29/6 35/26/6
f  39/30/7 41/31/7 40/32/7
f  39/30/7 42/33/7 41/31/7
f  43/34/3 45/35/3 44/36/3
f  44/36/3 46/37/3 43/34/3
f  47/38/1 49/39/1 48/40/1
f  47/38/1 50/41/1 49/39/1
f  51/42/5 53/43/5 52/44/5
f  51/42/5 54/45/5 53/43/5
