# Blender v2.79 (sub 0) OBJ File: 'cone.obj'
# www.blender.org
mtllib cone.mtl
o Cone_Cone.001
v 0.000000 -0.000006 -1.000000
v 0.145601 -0.000006 -0.989343
v 0.288099 -0.000006 -0.957601
v 0.424457 -0.000006 -0.905448
v 0.551768 -0.000006 -0.833998
v 0.667319 -0.000006 -0.744772
v 0.768647 -0.000006 -0.639673
v 0.853593 -0.000006 -0.520940
v 0.920346 -0.000006 -0.391105
v 0.967484 -0.000006 -0.252933
v 0.994001 -0.000006 -0.109371
v 0.999333 -0.000006 0.036522
v 0.983366 -0.000006 0.181637
v 0.946440 -0.000006 0.322880
v 0.889342 -0.000006 0.457242
v 0.813290 -0.000006 0.581859
v 0.719904 -0.000006 0.694074
v 0.611174 -0.000006 0.791496
v 0.489418 -0.000006 0.872049
v 0.357231 -0.000006 0.934016
v 0.217431 -0.000006 0.976076
v 0.072996 -0.000006 0.997332
v -0.072995 -0.000006 0.997332
v -0.217430 -0.000006 0.976076
v 0.000000 0.999994 0.000000
v -0.357230 -0.000006 0.934016
v -0.489417 -0.000006 0.872050
v -0.611173 -0.000006 0.791497
v -0.719903 -0.000006 0.694075
v -0.813289 -0.000006 0.581859
v -0.889342 -0.000006 0.457243
v -0.946440 -0.000006 0.322881
v -0.983366 -0.000006 0.181638
v -0.999333 -0.000006 0.036523
v -0.994001 -0.000006 -0.109370
v -0.967484 -0.000006 -0.252933
v -0.920347 -0.000006 -0.391104
v -0.853594 -0.000006 -0.520940
v -0.768648 -0.000006 -0.639672
v -0.667320 -0.000006 -0.744771
v -0.551769 -0.000006 -0.833997
v -0.424458 -0.000006 -0.905448
v -0.288100 -0.000006 -0.957600
v -0.145602 -0.000006 -0.989343
vt 0.250000 0.490000
vt 0.250000 0.250000
vt 0.284944 0.487442
vt 0.319144 0.479824
vt 0.351870 0.467308
vt 0.382424 0.450159
vt 0.410157 0.428745
vt 0.434475 0.403522
vt 0.454862 0.375026
vt 0.470883 0.343865
vt 0.482196 0.310704
vt 0.488560 0.276249
vt 0.489840 0.241235
vt 0.486008 0.206407
vt 0.477146 0.172509
vt 0.463442 0.140262
vt 0.445190 0.110354
vt 0.422777 0.083422
vt 0.396682 0.060041
vt 0.367460 0.040708
vt 0.335735 0.025836
vt 0.302183 0.015742
vt 0.267519 0.010640
vt 0.232481 0.010640
vt 0.197817 0.015742
vt 0.164265 0.025836
vt 0.132540 0.040708
vt 0.103318 0.060041
vt 0.077223 0.083422
vt 0.054811 0.110354
vt 0.036558 0.140262
vt 0.022855 0.172509
vt 0.013992 0.206407
vt 0.010160 0.241235
vt 0.011440 0.276249
vt 0.017804 0.310704
vt 0.029117 0.343865
vt 0.045138 0.375025
vt 0.065525 0.403521
vt 0.089843 0.428745
vt 0.117576 0.450159
vt 0.148130 0.467307
vt 0.180856 0.479824
vt 0.215055 0.487442
vt 0.536558 0.140262
vt 0.565525 0.403521
vt 0.910156 0.428745
vt 0.715055 0.487442
vt 0.750000 0.490000
vt 0.784944 0.487442
vt 0.819144 0.479824
vt 0.851870 0.467308
vt 0.882424 0.450159
vt 0.934475 0.403522
vt 0.954862 0.375026
vt 0.970883 0.343865
vt 0.982196 0.310704
vt 0.988560 0.276249
vt 0.989840 0.241235
vt 0.986008 0.206407
vt 0.977146 0.172509
vt 0.963442 0.140262
vt 0.945190 0.110354
vt 0.922777 0.083422
vt 0.896682 0.060041
vt 0.867460 0.040708
vt 0.835735 0.025836
vt 0.802183 0.015742
vt 0.767519 0.010640
vt 0.732481 0.010640
vt 0.697817 0.015742
vt 0.664265 0.025836
vt 0.632540 0.040708
vt 0.603318 0.060041
vt 0.577223 0.083422
vt 0.554811 0.110354
vt 0.522855 0.172509
vt 0.513992 0.206407
vt 0.510160 0.241235
vt 0.511440 0.276249
vt 0.517804 0.310704
vt 0.529117 0.343865
vt 0.545138 0.375025
vt 0.589843 0.428745
vt 0.617576 0.450159
vt 0.648130 0.467307
vt 0.680856 0.479824
vn 0.0517 0.7062 -0.7062
vn 0.1540 0.7062 -0.6911
vn 0.2529 0.7062 -0.6613
vn 0.3465 0.7062 -0.6175
vn 0.4327 0.7062 -0.5604
vn 0.5097 0.7062 -0.4914
vn 0.5759 0.7062 -0.4120
vn 0.6297 0.7062 -0.3238
vn 0.6701 0.7062 -0.2286
vn 0.6963 0.7062 -0.1286
vn 0.7076 0.7062 -0.0259
vn 0.7038 0.7062 0.0774
vn 0.6850 0.7062 0.1791
vn 0.6517 0.7062 0.2769
vn 0.6044 0.7062 0.3689
vn 0.5442 0.7062 0.4529
vn 0.4725 0.7062 0.5273
vn 0.3907 0.7062 0.5905
vn 0.3005 0.7062 0.6411
vn 0.2040 0.7062 0.6780
vn 0.1031 0.7062 0.7005
vn 0.0000 0.7062 0.7081
vn -0.1031 0.7062 0.7005
vn -0.2040 0.7062 0.6780
vn -0.3005 0.7062 0.6411
vn -0.3907 0.7062 0.5905
vn -0.4725 0.7062 0.5273
vn -0.5442 0.7062 0.4529
vn -0.6044 0.7062 0.3689
vn -0.6517 0.7062 0.2769
vn -0.6850 0.7062 0.1791
vn -0.7038 0.7062 0.0774
vn -0.7076 0.7062 -0.0259
vn -0.6963 0.7062 -0.1286
vn -0.6701 0.7062 -0.2286
vn -0.6297 0.7062 -0.3238
vn -0.5759 0.7062 -0.4120
vn -0.5097 0.7062 -0.4914
vn -0.4327 0.7062 -0.5604
vn -0.3465 0.7062 -0.6175
vn -0.2529 0.7062 -0.6613
vn -0.1540 0.7062 -0.6911
vn -0.0517 0.7062 -0.7062
vn 0.0000 -1.0000 0.0000
usemtl None
s off
f 1/1/1 25/2/1 2/3/1
f 2/3/2 25/2/2 3/4/2
f 3/4/3 25/2/3 4/5/3
f 4/5/4 25/2/4 5/6/4
f 5/6/5 25/2/5 6/7/5
f 6/7/6 25/2/6 7/8/6
f 7/8/7 25/2/7 8/9/7
f 8/9/8 25/2/8 9/10/8
f 9/10/9 25/2/9 10/11/9
f 10/11/10 25/2/10 11/12/10
f 11/12/11 25/2/11 12/13/11
f 12/13/12 25/2/12 13/14/12
f 13/14/13 25/2/13 14/15/13
f 14/15/14 25/2/14 15/16/14
f 15/16/15 25/2/15 16/17/15
f 16/17/16 25/2/16 17/18/16
f 17/18/17 25/2/17 18/19/17
f 18/19/18 25/2/18 19/20/18
f 19/20/19 25/2/19 20/21/19
f 20/21/20 25/2/20 21/22/20
f 21/22/21 25/2/21 22/23/21
f 22/23/22 25/2/22 23/24/22
f 23/24/23 25/2/23 24/25/23
f 24/25/24 25/2/24 26/26/24
f 26/26/25 25/2/25 27/27/25
f 27/27/26 25/2/26 28/28/26
f 28/28/27 25/2/27 29/29/27
f 29/29/28 25/2/28 30/30/28
f 30/30/29 25/2/29 31/31/29
f 31/31/30 25/2/30 32/32/30
f 32/32/31 25/2/31 33/33/31
f 33/33/32 25/2/32 34/34/32
f 34/34/33 25/2/33 35/35/33
f 35/35/34 25/2/34 36/36/34
f 36/36/35 25/2/35 37/37/35
f 37/37/36 25/2/36 38/38/36
f 38/38/37 25/2/37 39/39/37
f 39/39/38 25/2/38 40/40/38
f 40/40/39 25/2/39 41/41/39
f 41/41/40 25/2/40 42/42/40
f 42/42/41 25/2/41 43/43/41
f 43/43/42 25/2/42 44/44/42
f 44/44/43 25/2/43 1/1/43
f 31/45/44 39/46/44 6/47/44
f 44/48/44 1/49/44 2/50/44
f 2/50/44 3/51/44 6/47/44
f 3/51/44 4/52/44 6/47/44
f 4/52/44 5/53/44 6/47/44
f 6/47/44 7/54/44 8/55/44
f 8/55/44 9/56/44 10/57/44
f 10/57/44 11/58/44 12/59/44
f 12/59/44 13/60/44 14/61/44
f 14/61/44 15/62/44 16/63/44
f 16/63/44 17/64/44 18/65/44
f 18/65/44 19/66/44 20/67/44
f 20/67/44 21/68/44 22/69/44
f 22/69/44 23/70/44 24/71/44
f 24/71/44 26/72/44 27/73/44
f 27/73/44 28/74/44 31/45/44
f 28/74/44 29/75/44 31/45/44
f 29/75/44 30/76/44 31/45/44
f 31/45/44 32/77/44 33/78/44
f 33/78/44 34/79/44 35/80/44
f 35/80/44 36/81/44 39/46/44
f 36/81/44 37/82/44 39/46/44
f 37/82/44 38/83/44 39/46/44
f 39/46/44 40/84/44 41/85/44
f 41/85/44 42/86/44 43/87/44
f 43/87/44 44/48/44 2/50/44
f 6/47/44 8/55/44 10/57/44
f 10/57/44 12/59/44 14/61/44
f 14/61/44 16/63/44 18/65/44
f 18/65/44 20/67/44 22/69/44
f 22/69/44 24/71/44 31/45/44
f 24/71/44 27/73/44 31/45/44
f 31/45/44 33/78/44 39/46/44
f 33/78/44 35/80/44 39/46/44
f 39/46/44 41/85/44 43/87/44
f 43/87/44 2/50/44 39/46/44
f 2/50/44 6/47/44 39/46/44
f 6/47/44 10/57/44 14/61/44
f 14/61/44 18/65/44 6/47/44
f 18/65/44 22/69/44 6/47/44
f 22/69/44 31/45/44 6/47/44
